<svg width="309" height="249" viewBox="0 0 309 249" fill="none" xmlns="http://www.w3.org/2000/svg">
<g opacity="0.4">
<path d="M37.4689 115.58C37.4689 111.444 39.0298 107.7 41.5528 104.992C44.0723 102.281 47.5578 100.604 51.4075 100.604H108.077C115.776 100.604 122.016 93.8962 122.016 85.6282V85.1468C122.016 78.254 118.295 70.6977 111.742 70.5504C111.609 70.5475 111.474 70.5404 111.341 70.5213C104.516 69.5502 99.2512 63.2746 99.2512 55.676C99.2512 51.5401 100.812 47.7951 103.335 45.0881C105.854 42.3769 109.34 40.7 113.19 40.7H212.195C219.914 40.7 226.432 47.4859 226.379 55.7801C226.353 59.8749 224.798 63.5796 222.296 66.2643C220.57 68.1181 218.397 69.4905 215.962 70.1707C214.838 70.4827 213.659 70.6521 212.441 70.6521H205.162C199.171 72.3291 194.748 78.1835 194.748 85.1468V85.6282C194.748 93.8962 200.987 100.604 208.686 100.604H253.916C261.643 100.604 268.161 107.397 268.1 115.699C268.071 119.788 266.516 123.484 264.017 126.168C261.497 128.879 258.012 130.556 254.163 130.556H188.77C184.921 130.556 181.436 132.234 178.916 134.944C176.393 137.651 174.832 141.396 174.832 145.533C174.832 153.801 181.072 160.508 188.77 160.508H253.916C261.643 160.508 268.161 167.301 268.1 175.604C268.071 179.692 266.516 183.388 264.017 186.073C261.497 188.784 258.012 190.461 254.163 190.461H51.4075C43.7084 190.461 37.4689 183.753 37.4689 175.484C37.4689 171.349 39.0298 167.604 41.5528 164.896C44.0723 162.185 47.5578 160.508 51.4075 160.508H87.491C91.3404 160.508 94.8259 158.832 97.3493 156.12C99.8445 153.436 101.399 149.74 101.429 145.652C101.489 137.349 94.9715 130.556 87.2442 130.556H51.4075C43.7084 130.556 37.4689 123.848 37.4689 115.58Z" fill="#2D3144"/>
<path fill-rule="evenodd" clip-rule="evenodd" d="M29.9404 143.338C29.9404 143.109 30.1134 142.923 30.3267 142.923H52.2195C52.4331 142.923 52.6057 143.109 52.6057 143.338C52.6057 143.567 52.4331 143.753 52.2195 143.753H30.3267C30.1134 143.753 29.9404 143.567 29.9404 143.338Z" fill="#2D3144"/>
<path fill-rule="evenodd" clip-rule="evenodd" d="M34.97 150.225C34.97 149.996 35.1429 149.81 35.3562 149.81H52.2199C52.4331 149.81 52.6061 149.996 52.6061 150.225C52.6061 150.454 52.4331 150.64 52.2199 150.64H35.3562C35.1429 150.64 34.97 150.454 34.97 150.225Z" fill="#2D3144"/>
<path fill-rule="evenodd" clip-rule="evenodd" d="M141.452 203.555C141.452 203.326 141.625 203.14 141.838 203.14H163.731C163.945 203.14 164.118 203.326 164.118 203.555C164.118 203.784 163.945 203.97 163.731 203.97H141.838C141.625 203.97 141.452 203.784 141.452 203.555Z" fill="#2D3144"/>
<path fill-rule="evenodd" clip-rule="evenodd" d="M146.481 205.864C146.481 205.635 146.654 205.449 146.868 205.449H163.731C163.945 205.449 164.118 205.635 164.118 205.864C164.118 206.094 163.945 206.279 163.731 206.279H146.868C146.654 206.279 146.481 206.094 146.481 205.864Z" fill="#2D3144"/>
<path fill-rule="evenodd" clip-rule="evenodd" d="M42.0483 25.101C42.0483 24.8718 42.2214 24.686 42.4346 24.686H62.9472C63.1604 24.686 63.3334 24.8718 63.3334 25.101C63.3334 25.3302 63.1604 25.516 62.9472 25.516H42.4346C42.2214 25.516 42.0483 25.3302 42.0483 25.101Z" fill="#2D3144"/>
<path fill-rule="evenodd" clip-rule="evenodd" d="M65.3219 25.101C65.3219 24.8718 65.4949 24.686 65.7081 24.686H81.191C81.4046 24.686 81.5772 24.8718 81.5772 25.101C81.5772 25.3302 81.4046 25.516 81.191 25.516H65.7081C65.4949 25.516 65.3219 25.3302 65.3219 25.101Z" fill="#2D3144"/>
<path fill-rule="evenodd" clip-rule="evenodd" d="M42.0483 31.9882C42.0483 31.759 42.2214 31.5732 42.4346 31.5732H57.6216C57.8352 31.5732 58.0078 31.759 58.0078 31.9882C58.0078 32.2174 57.8352 32.4032 57.6216 32.4032H42.4346C42.2214 32.4032 42.0483 32.2174 42.0483 31.9882Z" fill="#2D3144"/>
<path fill-rule="evenodd" clip-rule="evenodd" d="M60.5883 31.9882C60.5883 31.759 60.7613 31.5732 60.9745 31.5732H98.6462C98.8595 31.5732 99.0325 31.759 99.0325 31.9882C99.0325 32.2174 98.8595 32.4032 98.6462 32.4032H60.9745C60.7613 32.4032 60.5883 32.2174 60.5883 31.9882Z" fill="#2D3144"/>
<path fill-rule="evenodd" clip-rule="evenodd" d="M42.0483 18.2138C42.0483 17.9846 42.2214 17.7988 42.4346 17.7988H50.9132C51.1264 17.7988 51.2994 17.9846 51.2994 18.2138C51.2994 18.443 51.1264 18.6288 50.9132 18.6288H42.4346C42.2214 18.6288 42.0483 18.443 42.0483 18.2138Z" fill="#2D3144"/>
<path d="M261.069 167.623C261.269 167.623 261.431 167.449 261.431 167.234C261.431 167.019 261.269 166.845 261.069 166.845C260.869 166.845 260.707 167.019 260.707 167.234C260.707 167.449 260.869 167.623 261.069 167.623Z" fill="#7D55FF"/>
<path d="M263.399 174.423C263.599 174.423 263.761 174.249 263.761 174.034C263.761 173.819 263.599 173.644 263.399 173.644C263.198 173.644 263.036 173.819 263.036 174.034C263.036 174.249 263.198 174.423 263.399 174.423Z" fill="#7D55FF"/>
<path d="M261.069 171.547C261.269 171.547 261.431 171.373 261.431 171.158C261.431 170.943 261.269 170.769 261.069 170.769C260.869 170.769 260.707 170.943 260.707 171.158C260.707 171.373 260.869 171.547 261.069 171.547Z" fill="#7D55FF"/>
<path d="M260.344 183.009C260.544 183.009 260.707 182.834 260.707 182.62C260.707 182.405 260.544 182.23 260.344 182.23C260.144 182.23 259.982 182.405 259.982 182.62C259.982 182.834 260.144 183.009 260.344 183.009Z" fill="#7D55FF"/>
<path d="M262.848 180.856C263.153 180.856 263.399 180.591 263.399 180.264C263.399 179.938 263.153 179.673 262.848 179.673C262.544 179.673 262.298 179.938 262.298 180.264C262.298 180.591 262.544 180.856 262.848 180.856Z" fill="#7D55FF"/>
<path d="M261.431 176.502C261.736 176.502 261.982 176.238 261.982 175.911C261.982 175.584 261.736 175.319 261.431 175.319C261.127 175.319 260.881 175.584 260.881 175.911C260.881 176.238 261.127 176.502 261.431 176.502Z" fill="#7D55FF"/>
<path d="M256.081 184.192C256.385 184.192 256.631 183.927 256.631 183.601C256.631 183.274 256.385 183.009 256.081 183.009C255.777 183.009 255.53 183.274 255.53 183.601C255.53 183.927 255.777 184.192 256.081 184.192Z" fill="#7D55FF"/>
<path d="M259.794 180.264C260.098 180.264 260.344 179.999 260.344 179.673C260.344 179.346 260.098 179.081 259.794 179.081C259.49 179.081 259.243 179.346 259.243 179.673C259.243 179.999 259.49 180.264 259.794 180.264Z" fill="#7D55FF"/>
<path d="M110.623 48.6342C110.823 48.6342 110.986 48.4599 110.986 48.2446C110.986 48.0296 110.823 47.8553 110.623 47.8553C110.423 47.8553 110.261 48.0296 110.261 48.2446C110.261 48.4599 110.423 48.6342 110.623 48.6342Z" fill="#7D55FF"/>
<path d="M108.294 55.4336C108.494 55.4336 108.656 55.2593 108.656 55.0444C108.656 54.8294 108.494 54.6551 108.294 54.6551C108.094 54.6551 107.931 54.8294 107.931 55.0444C107.931 55.2593 108.094 55.4336 108.294 55.4336Z" fill="#7D55FF"/>
<path d="M110.623 52.5581C110.823 52.5581 110.986 52.3838 110.986 52.1688C110.986 51.9538 110.823 51.7795 110.623 51.7795C110.423 51.7795 110.261 51.9538 110.261 52.1688C110.261 52.3838 110.423 52.5581 110.623 52.5581Z" fill="#7D55FF"/>
<path d="M111.348 64.0196C111.548 64.0196 111.71 63.8453 111.71 63.6303C111.71 63.4153 111.548 63.2406 111.348 63.2406C111.148 63.2406 110.986 63.4153 110.986 63.6303C110.986 63.8453 111.148 64.0196 111.348 64.0196Z" fill="#7D55FF"/>
<path d="M108.844 61.8665C109.148 61.8665 109.395 61.6018 109.395 61.2752C109.395 60.9481 109.148 60.6834 108.844 60.6834C108.54 60.6834 108.294 60.9481 108.294 61.2752C108.294 61.6018 108.54 61.8665 108.844 61.8665Z" fill="#7D55FF"/>
<path d="M110.261 57.5132C110.565 57.5132 110.811 57.248 110.811 56.9214C110.811 56.5948 110.565 56.33 110.261 56.33C109.957 56.33 109.71 56.5948 109.71 56.9214C109.71 57.248 109.957 57.5132 110.261 57.5132Z" fill="#7D55FF"/>
<path d="M115.612 65.2028C115.916 65.2028 116.163 64.938 116.163 64.6114C116.163 64.2844 115.916 64.0196 115.612 64.0196C115.308 64.0196 115.062 64.2844 115.062 64.6114C115.062 64.938 115.308 65.2028 115.612 65.2028Z" fill="#7D55FF"/>
<path d="M111.899 61.2747C112.203 61.2747 112.449 61.01 112.449 60.6834C112.449 60.3568 112.203 60.0916 111.899 60.0916C111.595 60.0916 111.348 60.3568 111.348 60.6834C111.348 61.01 111.595 61.2747 111.899 61.2747Z" fill="#7D55FF"/>
<path fill-rule="evenodd" clip-rule="evenodd" d="M278.374 78.1391C278.587 78.1391 278.76 78.325 278.76 78.5541V101.771C278.76 102 278.587 102.186 278.374 102.186C278.161 102.186 277.988 102 277.988 101.771V78.5541C277.988 78.325 278.161 78.1391 278.374 78.1391Z" fill="#2D3144"/>
<path fill-rule="evenodd" clip-rule="evenodd" d="M283.67 78.1391C283.884 78.1391 284.057 78.325 284.057 78.5541V114.537C284.057 114.766 283.884 114.952 283.67 114.952C283.457 114.952 283.284 114.766 283.284 114.537V78.5541C283.284 78.325 283.457 78.1391 283.67 78.1391Z" fill="#2D3144"/>
<path fill-rule="evenodd" clip-rule="evenodd" d="M288.966 78.1391C289.18 78.1391 289.353 78.325 289.353 78.5541V92.5441C289.353 92.7732 289.18 92.9591 288.966 92.9591C288.753 92.9591 288.58 92.7732 288.58 92.5441V78.5541C288.58 78.325 288.753 78.1391 288.966 78.1391Z" fill="#2D3144"/>
<path opacity="0.4" d="M82.241 80.0548C85.6721 80.0548 88.4539 77.0659 88.4539 73.3791C88.4539 69.6922 85.6721 66.7034 82.241 66.7034C78.8096 66.7034 76.0278 69.6922 76.0278 73.3791C76.0278 77.0659 78.8096 80.0548 82.241 80.0548Z" fill="#8086FF"/>
<path opacity="0.4" d="M39.5001 192C41.9852 192 44 189.985 44 187.5C44 185.015 41.9852 183 39.5001 183C37.0148 183 35 185.015 35 187.5C35 189.985 37.0148 192 39.5001 192Z" fill="#55FFB8"/>
<path opacity="0.4" d="M214.802 230.871C218.233 230.871 221.015 227.882 221.015 224.195C221.015 220.509 218.233 217.52 214.802 217.52C211.37 217.52 208.589 220.509 208.589 224.195C208.589 227.882 211.37 230.871 214.802 230.871Z" fill="#8086FF"/>
<path opacity="0.4" d="M266.211 38.3864C271.471 38.3864 275.735 33.8049 275.735 28.1534C275.735 22.5019 271.471 17.9204 266.211 17.9204C260.951 17.9204 256.687 22.5019 256.687 28.1534C256.687 33.8049 260.951 38.3864 266.211 38.3864Z" fill="#FF7CA3"/>
<path fill-rule="evenodd" clip-rule="evenodd" d="M233.243 145.274C233.543 145.264 233.779 145.076 233.772 144.85C233.765 144.621 233.512 144.439 233.206 144.444C232.639 144.454 232.312 144.773 232.134 145.014C231.954 145.258 231.821 145.568 231.707 145.83L231.698 145.852C231.573 146.142 231.469 146.377 231.346 146.545C231.286 146.625 231.244 146.662 231.22 146.678C231.195 146.663 231.151 146.628 231.086 146.549C230.954 146.386 230.836 146.154 230.694 145.868L230.683 145.846C230.555 145.589 230.403 145.284 230.209 145.045C230.018 144.81 229.673 144.502 229.105 144.511L229.117 144.926L229.105 144.511C228.538 144.521 228.212 144.84 228.034 145.081C227.855 145.326 227.721 145.636 227.608 145.897L227.599 145.919C227.474 146.209 227.37 146.444 227.247 146.612C227.188 146.692 227.146 146.728 227.122 146.744C227.098 146.729 227.053 146.694 226.99 146.616C226.857 146.453 226.74 146.221 226.598 145.935L226.587 145.914C226.46 145.656 226.308 145.351 226.115 145.112C225.924 144.877 225.579 144.569 225.011 144.578C224.444 144.588 224.118 144.907 223.941 145.148C223.761 145.393 223.628 145.702 223.515 145.964L223.505 145.986C223.38 146.276 223.277 146.511 223.154 146.679C223.095 146.759 223.053 146.795 223.029 146.811C223.005 146.796 222.96 146.761 222.897 146.683C222.764 146.52 222.647 146.287 222.505 146.002L222.494 145.98C222.366 145.723 222.215 145.418 222.021 145.179C221.831 144.944 221.486 144.636 220.918 144.645C220.351 144.654 220.025 144.974 219.847 145.215C219.668 145.46 219.534 145.769 219.422 146.031L219.412 146.053C219.287 146.343 219.183 146.578 219.06 146.746C219.001 146.825 218.959 146.862 218.935 146.878C218.911 146.863 218.867 146.827 218.803 146.75C218.671 146.587 218.553 146.355 218.411 146.069L218.401 146.047C218.273 145.79 218.122 145.485 217.928 145.246C217.737 145.011 217.392 144.703 216.824 144.712C216.257 144.721 215.931 145.041 215.754 145.282C215.574 145.526 215.441 145.836 215.328 146.097L215.319 146.119C215.194 146.409 215.09 146.645 214.967 146.812C214.909 146.892 214.867 146.929 214.843 146.945C214.818 146.929 214.774 146.894 214.711 146.817C214.578 146.654 214.461 146.422 214.32 146.136L214.309 146.114C214.181 145.857 214.03 145.552 213.836 145.313C213.646 145.078 213.301 144.769 212.734 144.779C212.166 144.788 211.84 145.108 211.663 145.348C211.483 145.593 211.35 145.903 211.237 146.164L211.228 146.186C211.103 146.476 210.999 146.712 210.876 146.879C210.818 146.959 210.775 146.995 210.752 147.011C210.727 146.996 210.683 146.961 210.62 146.884C210.488 146.72 210.37 146.488 210.229 146.203L210.218 146.181C210.09 145.924 209.939 145.619 209.745 145.38C209.555 145.145 209.211 144.836 208.643 144.846L208.655 145.26L208.643 144.846C208.076 144.855 207.75 145.174 207.573 145.415C207.393 145.66 207.259 145.97 207.147 146.231L207.137 146.253C207.013 146.543 206.909 146.779 206.786 146.946C206.728 147.025 206.686 147.062 206.662 147.078C206.637 147.063 206.593 147.027 206.531 146.951C206.398 146.787 206.281 146.555 206.14 146.27L206.129 146.248C206.001 145.99 205.85 145.685 205.657 145.447C205.466 145.212 205.122 144.903 204.555 144.912C203.987 144.922 203.661 145.241 203.484 145.482C203.305 145.727 203.171 146.036 203.059 146.298C203.055 146.305 203.052 146.313 203.049 146.32C202.924 146.61 202.82 146.846 202.697 147.013C202.639 147.092 202.597 147.129 202.573 147.145C202.549 147.13 202.504 147.095 202.442 147.017C202.309 146.854 202.192 146.622 202.05 146.336C202.047 146.329 202.043 146.322 202.039 146.314C201.911 146.057 201.76 145.752 201.566 145.514C201.376 145.279 201.032 144.97 200.464 144.979C199.896 144.989 199.57 145.308 199.393 145.549C199.214 145.794 199.08 146.103 198.968 146.365C198.964 146.372 198.961 146.38 198.958 146.387C198.833 146.677 198.729 146.912 198.606 147.08C198.548 147.159 198.506 147.196 198.482 147.212C198.458 147.197 198.413 147.161 198.351 147.084C198.218 146.921 198.101 146.689 197.959 146.403C197.955 146.396 197.952 146.389 197.948 146.382C197.82 146.124 197.669 145.819 197.475 145.58C197.285 145.345 196.94 145.037 196.373 145.046C196.067 145.051 195.824 145.241 195.831 145.47C195.838 145.696 196.084 145.875 196.383 145.876C196.402 145.885 196.452 145.916 196.529 146.012C196.661 146.175 196.779 146.407 196.92 146.693C196.924 146.7 196.928 146.707 196.931 146.714C197.059 146.971 197.21 147.277 197.404 147.515C197.595 147.75 197.939 148.059 198.507 148.05C199.074 148.04 199.4 147.72 199.577 147.48C199.757 147.235 199.89 146.925 200.003 146.664C200.006 146.656 200.009 146.649 200.012 146.642C200.137 146.352 200.241 146.117 200.364 145.949C200.422 145.87 200.465 145.833 200.488 145.817C200.513 145.832 200.557 145.867 200.62 145.945C200.753 146.108 200.87 146.34 201.012 146.626C201.015 146.633 201.019 146.64 201.022 146.647C201.15 146.905 201.302 147.21 201.495 147.448C201.686 147.683 202.03 147.992 202.598 147.983C203.165 147.973 203.492 147.654 203.668 147.413C203.848 147.168 203.981 146.859 204.094 146.597C204.097 146.59 204.1 146.582 204.103 146.575C204.228 146.285 204.332 146.049 204.455 145.882C204.513 145.803 204.555 145.766 204.579 145.75C204.604 145.765 204.648 145.801 204.71 145.877C204.842 146.041 204.96 146.273 205.101 146.558C205.105 146.566 205.108 146.573 205.112 146.58C205.239 146.838 205.391 147.143 205.584 147.381C205.774 147.616 206.118 147.925 206.686 147.916C207.254 147.906 207.58 147.587 207.757 147.346C207.936 147.101 208.07 146.792 208.182 146.53L208.192 146.508C208.317 146.218 208.42 145.983 208.543 145.815C208.602 145.736 208.644 145.699 208.667 145.683C208.692 145.699 208.736 145.734 208.799 145.811C208.931 145.974 209.049 146.206 209.19 146.492L209.201 146.514C209.329 146.771 209.48 147.076 209.673 147.315C209.864 147.55 210.208 147.858 210.776 147.849C211.343 147.84 211.67 147.52 211.847 147.279C212.026 147.035 212.16 146.725 212.272 146.463L212.282 146.441C212.407 146.152 212.51 145.916 212.634 145.748C212.692 145.669 212.734 145.633 212.758 145.616C212.782 145.632 212.827 145.667 212.889 145.744C213.022 145.907 213.139 146.139 213.281 146.425L213.292 146.447C213.42 146.705 213.571 147.01 213.764 147.248C213.955 147.483 214.299 147.791 214.867 147.782C215.434 147.773 215.761 147.454 215.938 147.213C216.117 146.968 216.251 146.658 216.363 146.397L216.373 146.375C216.498 146.085 216.602 145.849 216.724 145.682C216.783 145.602 216.825 145.565 216.849 145.55C216.874 145.565 216.918 145.6 216.981 145.677C217.114 145.841 217.231 146.073 217.373 146.358L217.384 146.38C217.512 146.638 217.663 146.943 217.857 147.181C218.048 147.416 218.392 147.725 218.96 147.716C219.527 147.706 219.854 147.387 220.031 147.146C220.21 146.901 220.344 146.591 220.457 146.33L220.466 146.308C220.591 146.018 220.695 145.782 220.818 145.615C220.877 145.535 220.919 145.499 220.943 145.482C220.967 145.498 221.012 145.533 221.075 145.611C221.208 145.774 221.325 146.006 221.467 146.292L221.478 146.313C221.606 146.571 221.757 146.876 221.951 147.115C222.142 147.349 222.486 147.658 223.054 147.649C223.621 147.639 223.947 147.32 224.124 147.079C224.304 146.834 224.437 146.524 224.55 146.263L224.56 146.241C224.685 145.951 224.789 145.716 224.911 145.548C224.97 145.468 225.012 145.432 225.036 145.416C225.061 145.431 225.105 145.466 225.168 145.544C225.301 145.707 225.418 145.939 225.56 146.225L225.571 146.246C225.699 146.504 225.85 146.809 226.044 147.048C226.234 147.283 226.579 147.591 227.147 147.582C227.714 147.572 228.04 147.253 228.217 147.012C228.397 146.767 228.531 146.458 228.643 146.196L228.653 146.174C228.778 145.884 228.882 145.649 229.005 145.481C229.064 145.401 229.106 145.365 229.13 145.349C229.155 145.364 229.199 145.399 229.263 145.477C229.396 145.64 229.514 145.872 229.656 146.158L229.667 146.18C229.794 146.437 229.946 146.742 230.14 146.981C230.332 147.216 230.677 147.524 231.244 147.515C231.812 147.506 232.139 147.187 232.316 146.945C232.496 146.701 232.63 146.391 232.743 146.129L232.752 146.107C232.877 145.817 232.981 145.582 233.105 145.414C233.177 145.316 233.225 145.283 233.243 145.274ZM229.152 145.338C229.152 145.338 229.15 145.339 229.146 145.34C229.15 145.338 229.152 145.337 229.152 145.338ZM229.114 145.34C229.11 145.34 229.107 145.338 229.107 145.338C229.107 145.338 229.11 145.338 229.114 145.34ZM225.059 145.404C225.059 145.404 225.056 145.406 225.052 145.406C225.056 145.404 225.059 145.404 225.059 145.404ZM225.02 145.407C225.015 145.406 225.013 145.405 225.013 145.405C225.013 145.405 225.015 145.405 225.02 145.407ZM220.965 145.471C220.965 145.472 220.963 145.472 220.959 145.473C220.963 145.471 220.965 145.471 220.965 145.471ZM220.926 145.474C220.922 145.473 220.92 145.472 220.92 145.472C220.92 145.472 220.922 145.472 220.926 145.474ZM216.872 145.538C216.872 145.538 216.869 145.539 216.865 145.54C216.869 145.538 216.872 145.538 216.872 145.538ZM216.833 145.541C216.828 145.54 216.826 145.539 216.826 145.539C216.826 145.538 216.828 145.539 216.833 145.541ZM212.78 145.605C212.78 145.605 212.779 145.606 212.774 145.607C212.778 145.605 212.78 145.604 212.78 145.605ZM212.741 145.608C212.737 145.607 212.735 145.606 212.735 145.606C212.735 145.605 212.737 145.606 212.741 145.608ZM208.69 145.672C208.69 145.672 208.688 145.673 208.684 145.674C208.688 145.672 208.69 145.671 208.69 145.672ZM208.651 145.674C208.646 145.674 208.644 145.672 208.644 145.672C208.644 145.672 208.646 145.672 208.651 145.674ZM204.602 145.738C204.602 145.738 204.6 145.74 204.595 145.741C204.599 145.738 204.602 145.738 204.602 145.738ZM204.562 145.741C204.558 145.74 204.555 145.739 204.555 145.739C204.555 145.739 204.558 145.739 204.562 145.741ZM200.511 145.805C200.511 145.806 200.509 145.806 200.504 145.807C200.509 145.805 200.511 145.805 200.511 145.805ZM200.472 145.808C200.467 145.807 200.465 145.806 200.465 145.806C200.465 145.806 200.467 145.806 200.472 145.808ZM196.374 145.873C196.374 145.872 196.376 145.873 196.381 145.875C196.376 145.874 196.374 145.873 196.374 145.873ZM198.459 147.223C198.459 147.223 198.462 147.222 198.466 147.221C198.462 147.223 198.459 147.224 198.459 147.223ZM198.499 147.221C198.503 147.222 198.505 147.222 198.505 147.223C198.505 147.223 198.503 147.222 198.499 147.221ZM202.551 147.156C202.551 147.156 202.553 147.155 202.557 147.154C202.553 147.156 202.551 147.157 202.551 147.156ZM202.59 147.154C202.595 147.155 202.597 147.156 202.597 147.156C202.597 147.156 202.594 147.156 202.59 147.154ZM206.639 147.09C206.639 147.09 206.641 147.088 206.646 147.088C206.641 147.09 206.639 147.09 206.639 147.09ZM206.679 147.087C206.683 147.088 206.685 147.089 206.685 147.089C206.685 147.089 206.683 147.089 206.679 147.087ZM210.729 147.023C210.729 147.023 210.731 147.022 210.735 147.021C210.731 147.023 210.729 147.023 210.729 147.023ZM210.768 147.02C210.773 147.021 210.775 147.022 210.775 147.022C210.775 147.022 210.773 147.022 210.768 147.02ZM214.82 146.956C214.82 146.956 214.822 146.955 214.826 146.954C214.822 146.956 214.82 146.956 214.82 146.956ZM214.859 146.954C214.864 146.954 214.866 146.955 214.866 146.956C214.866 146.956 214.864 146.955 214.859 146.954ZM218.913 146.889C218.913 146.889 218.915 146.888 218.92 146.887C218.915 146.889 218.913 146.89 218.913 146.889ZM218.952 146.887C218.956 146.888 218.959 146.888 218.959 146.889C218.959 146.889 218.956 146.888 218.952 146.887ZM223.007 146.822C223.007 146.822 223.009 146.821 223.013 146.82C223.009 146.822 223.007 146.823 223.007 146.822ZM223.045 146.82C223.05 146.82 223.052 146.822 223.052 146.822C223.052 146.822 223.05 146.822 223.045 146.82ZM227.1 146.756C227.1 146.755 227.102 146.754 227.106 146.754C227.102 146.756 227.1 146.756 227.1 146.756ZM227.139 146.753C227.143 146.754 227.145 146.755 227.145 146.755C227.145 146.755 227.143 146.755 227.139 146.753ZM231.198 146.689C231.198 146.688 231.2 146.687 231.205 146.686C231.2 146.688 231.198 146.689 231.198 146.689ZM231.236 146.686C231.24 146.687 231.242 146.688 231.242 146.688C231.242 146.688 231.24 146.688 231.236 146.686ZM233.246 145.273C233.25 145.271 233.252 145.27 233.252 145.271C233.252 145.271 233.25 145.272 233.246 145.273Z" fill="#2D3144"/>
<path fill-rule="evenodd" clip-rule="evenodd" d="M82.2585 223.945C82.4675 223.935 82.6317 223.747 82.627 223.521C82.6224 223.292 82.4459 223.11 82.2327 223.115C81.8368 223.125 81.6089 223.443 81.4853 223.685C81.3597 223.929 81.2663 224.239 81.1875 224.5L81.1809 224.522C81.0936 224.813 81.021 225.048 80.9353 225.215C80.8939 225.296 80.8642 225.333 80.8476 225.349C80.8302 225.334 80.7989 225.298 80.7545 225.22C80.6618 225.057 80.5799 224.825 80.4806 224.539L80.4733 224.517C80.3837 224.26 80.2782 223.955 80.1427 223.716C80.0094 223.481 79.7688 223.173 79.3733 223.182C78.9773 223.192 78.7498 223.511 78.6262 223.752C78.5011 223.997 78.408 224.306 78.3292 224.568L78.3227 224.59C78.2354 224.88 78.1631 225.115 78.0774 225.283C78.0364 225.362 78.0071 225.399 77.9905 225.415C77.9731 225.4 77.9422 225.365 77.8982 225.287C77.8059 225.124 77.724 224.892 77.6251 224.606L77.6174 224.585C77.5281 224.327 77.4227 224.022 77.2875 223.783C77.1546 223.548 76.9144 223.24 76.5185 223.249C76.123 223.258 75.8955 223.578 75.7719 223.819C75.6467 224.063 75.5536 224.373 75.4748 224.635L75.4683 224.656C75.3814 224.947 75.3087 225.182 75.223 225.35C75.1824 225.429 75.1531 225.466 75.1365 225.482C75.1191 225.467 75.0882 225.432 75.0442 225.354C74.9519 225.191 74.87 224.959 74.7711 224.673L74.7634 224.652C74.6741 224.394 74.5687 224.089 74.4335 223.85C74.3006 223.615 74.0604 223.307 73.6645 223.316L73.673 223.731L73.6645 223.316C73.2686 223.325 73.0411 223.645 72.9179 223.885C72.7923 224.13 72.6992 224.44 72.6208 224.701L72.6143 224.723C72.527 225.013 72.4544 225.249 72.3686 225.416C72.3281 225.496 72.2983 225.533 72.2817 225.549C72.2647 225.534 72.2338 225.499 72.1898 225.421C72.0971 225.257 72.0152 225.025 71.9163 224.74L71.909 224.718C71.8197 224.461 71.7143 224.156 71.5791 223.917C71.4459 223.682 71.2056 223.374 70.8101 223.383C70.4142 223.392 70.1867 223.712 70.0635 223.953C69.9383 224.197 69.8452 224.507 69.7664 224.769L69.7599 224.791C69.6726 225.08 69.6004 225.316 69.5146 225.484C69.4741 225.563 69.4447 225.599 69.4281 225.616C69.4107 225.6 69.3798 225.565 69.3362 225.488C69.2439 225.324 69.162 225.092 69.0631 224.807L69.0557 224.785C68.9665 224.527 68.8611 224.222 68.7263 223.984C68.5934 223.749 68.3532 223.441 67.9572 223.45C67.5617 223.459 67.3342 223.778 67.2106 224.019C67.0855 224.264 66.9924 224.573 66.914 224.835L66.9074 224.857C66.8201 225.147 66.7475 225.383 66.6618 225.55C66.6212 225.63 66.5919 225.666 66.5753 225.682C66.5583 225.667 66.5274 225.632 66.4837 225.555C66.3914 225.391 66.3095 225.159 66.2106 224.874L66.2033 224.852C66.1141 224.594 66.0086 224.289 65.8738 224.051C65.7409 223.816 65.5011 223.507 65.1052 223.517L65.1137 223.931L65.1052 223.517C64.7093 223.526 64.4818 223.845 64.3586 224.086C64.2334 224.331 64.1403 224.641 64.0619 224.902L64.0554 224.924C63.9681 225.214 63.8958 225.45 63.8101 225.617C63.7695 225.696 63.7402 225.733 63.7236 225.749C63.7066 225.733 63.6757 225.699 63.6324 225.621C63.5401 225.458 63.4582 225.226 63.3593 224.94L63.352 224.919C63.2632 224.661 63.1577 224.356 63.0229 224.118C62.89 223.883 62.6502 223.574 62.2543 223.583L82.2585 223.945ZM63.7077 225.761C63.7077 225.76 63.7093 225.76 63.7124 225.758C63.7093 225.76 63.7077 225.761 63.7077 225.761ZM63.7355 225.758C63.7386 225.759 63.7402 225.76 63.7402 225.76C63.7402 225.76 63.7386 225.76 63.7355 225.758ZM66.5594 225.694C66.5594 225.694 66.561 225.693 66.564 225.692C66.561 225.694 66.5594 225.694 66.5594 225.694ZM66.5868 225.691C66.5899 225.692 66.5915 225.693 66.5915 225.693C66.5915 225.694 66.5899 225.693 66.5868 225.691ZM69.4123 225.627C69.4123 225.627 69.4138 225.626 69.4169 225.625C69.4138 225.627 69.4123 225.627 69.4123 225.627ZM69.4397 225.624C69.4428 225.625 69.4443 225.626 69.4443 225.626C69.4443 225.627 69.4428 225.626 69.4397 225.624ZM72.2663 225.56C72.2663 225.56 72.2678 225.559 72.2709 225.558C72.2678 225.56 72.2663 225.56 72.2663 225.56ZM72.2933 225.557C72.2964 225.558 72.2979 225.559 72.2979 225.56C72.2979 225.56 72.2964 225.56 72.2933 225.557ZM73.6815 224.154C73.6989 224.168 73.7298 224.204 73.7738 224.281C73.8661 224.445 73.948 224.677 74.0469 224.962L74.0542 224.984C74.1434 225.242 74.2493 225.547 74.3841 225.785C74.5173 226.02 74.7576 226.329 75.1535 226.319C75.549 226.31 75.7765 225.991 75.9001 225.75C76.0252 225.505 76.1183 225.195 76.1967 224.934L76.2037 224.912C76.2906 224.622 76.3632 224.386 76.449 224.219C76.4895 224.139 76.5189 224.102 76.5355 224.087C76.5529 224.102 76.5838 224.137 76.6278 224.215C76.7201 224.378 76.802 224.61 76.9009 224.896L76.9086 224.917C76.9974 225.175 77.1033 225.48 77.2381 225.718C77.3713 225.953 77.6116 226.262 78.0071 226.253C78.403 226.243 78.6305 225.924 78.7541 225.683C78.8792 225.438 78.9723 225.128 79.0511 224.867L79.0577 224.845C79.145 224.555 79.2172 224.32 79.303 224.152C79.3443 224.072 79.3736 224.035 79.3903 224.019C79.4076 224.034 79.4385 224.07 79.483 224.148C79.5757 224.311 79.6579 224.543 79.7568 224.829L79.7641 224.851C79.8538 225.108 79.9592 225.413 80.0948 225.652C80.228 225.887 80.4687 226.195 80.8646 226.186C81.2601 226.176 81.488 225.857 81.6116 225.616C81.7371 225.372 81.8306 225.062 81.9094 224.8L81.9159 224.778C82.0032 224.488 82.0759 224.253 82.1616 224.085C82.2122 223.987 82.2454 223.954 82.2585 223.945L73.6815 224.154ZM79.4057 224.008C79.4057 224.009 79.4042 224.01 79.4011 224.01C79.4042 224.008 79.4057 224.008 79.4057 224.008ZM79.379 224.011C79.376 224.01 79.3744 224.01 79.3744 224.009C79.3744 224.009 79.376 224.009 79.379 224.011ZM76.5513 224.075C76.5513 224.076 76.5498 224.076 76.5467 224.077C76.5498 224.076 76.5513 224.075 76.5513 224.075ZM76.5243 224.078C76.5208 224.077 76.5193 224.076 76.5193 224.076C76.5193 224.076 76.5212 224.076 76.5243 224.078ZM73.6815 224.154C73.6649 224.169 73.6355 224.206 73.5946 224.286C73.5088 224.453 73.4362 224.689 73.3493 224.979L73.3427 225.001C73.2639 225.262 73.1709 225.572 73.0453 225.817C72.9221 226.058 72.6946 226.377 72.2987 226.386C71.9032 226.395 71.6629 226.087 71.5297 225.852C71.3945 225.613 71.289 225.308 71.1998 225.051L71.1925 225.029C71.0936 224.744 71.0117 224.512 70.919 224.349C70.875 224.271 70.8441 224.236 70.8271 224.22C70.8105 224.237 70.7811 224.273 70.7402 224.352C70.6544 224.52 70.5822 224.756 70.4949 225.045L70.4883 225.067C70.4099 225.329 70.3169 225.639 70.1913 225.883C70.0681 226.124 69.8406 226.444 69.4451 226.453C69.0492 226.463 68.8089 226.154 68.6761 225.919C68.5413 225.68 68.4358 225.375 68.3466 225.118L68.3392 225.096C68.2404 224.81 68.1585 224.578 68.0662 224.415C68.0221 224.338 67.9916 224.303 67.9742 224.287C67.9576 224.303 67.9283 224.34 67.8877 224.42C67.802 224.587 67.7294 224.823 67.6425 225.112L67.6359 225.134C67.5571 225.396 67.464 225.706 67.3389 225.95C67.2156 226.191 66.9881 226.511 66.5922 226.52C66.1963 226.529 65.9565 226.22 65.8236 225.986C65.6884 225.747 65.583 225.442 65.4941 225.184L65.4868 225.163C65.3879 224.877 65.306 224.645 65.2137 224.482C65.1701 224.405 65.1392 224.369 65.1222 224.354C65.1056 224.37 65.0762 224.407 65.0357 224.486C64.9499 224.654 64.8777 224.889 64.7904 225.179L64.7838 225.201C64.7054 225.462 64.6123 225.772 64.4872 226.017C64.3636 226.258 64.1365 226.578 63.7406 226.587C63.3447 226.596 63.1048 226.287 62.9719 226.052C62.8371 225.814 62.7317 225.509 62.6428 225.251C62.6401 225.244 62.6378 225.237 62.6355 225.23C62.5366 224.944 62.4547 224.712 62.3624 224.549C62.3192 224.471 62.2883 224.437 62.2713 224.421C62.2547 224.437 62.2253 224.474 62.1847 224.553C62.099 224.72 62.0268 224.956 61.9395 225.246L61.9329 225.268C61.8545 225.529 61.7614 225.839 61.6363 226.084C61.5131 226.325 61.2856 226.644 60.8896 226.653C60.4941 226.663 60.2539 226.354 60.121 226.119C59.9858 225.881 59.8804 225.576 59.7912 225.318C59.7888 225.311 59.7865 225.303 59.7838 225.296C59.6849 225.011 59.603 224.779 59.5107 224.615C59.4671 224.538 59.4362 224.503 59.4188 224.488C59.4022 224.504 59.3728 224.54 59.3323 224.62C59.2465 224.787 59.1743 225.023 59.087 225.313C59.0851 225.32 59.0828 225.327 59.0805 225.335C59.002 225.596 58.909 225.906 58.7834 226.15C58.6602 226.392 58.4327 226.711 58.0372 226.72C57.6413 226.729 57.401 226.421 57.2682 226.186C57.1334 225.948 57.0279 225.643 56.9387 225.385C56.936 225.378 56.9337 225.37 56.9314 225.363C56.8325 225.078 56.7506 224.846 56.6583 224.682C56.6042 224.587 56.5698 224.556 56.5567 224.547C56.3477 224.546 56.1762 224.366 56.1716 224.141C56.167 223.912 56.3361 223.722 56.5494 223.717C56.9453 223.707 57.1851 224.016 57.318 224.251C57.4532 224.49 57.5586 224.795 57.6479 225.052C57.6502 225.059 57.6529 225.067 57.6552 225.074C57.7541 225.359 57.836 225.591 57.9283 225.755C57.9719 225.832 58.0028 225.867 58.0202 225.883C58.0368 225.867 58.0662 225.83 58.1067 225.751C58.1925 225.583 58.2647 225.347 58.352 225.058C58.3543 225.05 58.3562 225.043 58.3586 225.036C58.4373 224.774 58.53 224.464 58.6556 224.22C58.7788 223.979 59.0063 223.659 59.4018 223.65C59.7977 223.641 60.038 223.949 60.1708 224.184C60.306 224.423 60.4115 224.728 60.5003 224.986C60.503 224.993 60.5053 225 60.508 225.007C60.6069 225.293 60.6884 225.525 60.7811 225.688C60.8248 225.765 60.8557 225.801 60.8727 225.816C60.8893 225.8 60.9186 225.763 60.9592 225.684C61.0449 225.516 61.1175 225.281 61.2044 224.991C61.2068 224.984 61.2091 224.976 61.211 224.969C61.2898 224.707 61.3825 224.398 61.508 224.153C61.6312 223.912 61.8587 223.592 62.2543 223.583L73.6815 224.154ZM60.8568 225.828C60.8568 225.827 60.8584 225.826 60.8615 225.825C60.8584 225.827 60.8568 225.828 60.8568 225.828ZM60.8842 225.825C60.8877 225.826 60.8893 225.826 60.8893 225.827C60.8893 225.827 60.8873 225.827 60.8842 225.825ZM58.0044 225.894C58.0044 225.894 58.0059 225.893 58.009 225.892C58.0059 225.894 58.0044 225.894 58.0044 225.894ZM58.0318 225.892C58.0349 225.892 58.0364 225.893 58.0364 225.894C58.0364 225.894 58.0349 225.894 58.0318 225.892ZM56.5501 224.544C56.5501 224.543 56.5517 224.544 56.5548 224.546C56.5517 224.545 56.5501 224.544 56.5501 224.544ZM59.4346 224.476C59.4346 224.476 59.4331 224.477 59.43 224.478C59.4331 224.476 59.4346 224.476 59.4346 224.476ZM59.4072 224.479C59.4041 224.478 59.4026 224.477 59.4026 224.477C59.4026 224.476 59.4041 224.477 59.4072 224.479ZM62.2871 224.409C62.2871 224.41 62.2856 224.41 62.2825 224.412C62.2856 224.41 62.2871 224.409 62.2871 224.409ZM62.2593 224.412C62.2562 224.411 62.2547 224.41 62.2547 224.41C62.2547 224.41 62.2562 224.41 62.2593 224.412ZM65.138 224.342C65.138 224.343 65.1365 224.344 65.1334 224.345C65.1365 224.343 65.138 224.342 65.138 224.342ZM65.1106 224.345C65.1071 224.344 65.1056 224.344 65.1056 224.343C65.1056 224.343 65.1071 224.343 65.1106 224.345ZM67.9901 224.276C67.9901 224.276 67.9885 224.277 67.9854 224.278C67.9885 224.276 67.9901 224.276 67.9901 224.276ZM67.9627 224.278C67.9596 224.278 67.958 224.277 67.958 224.276C67.958 224.276 67.9596 224.276 67.9627 224.278ZM70.8425 224.209C70.8425 224.209 70.8414 224.21 70.8379 224.211C70.841 224.209 70.8425 224.209 70.8425 224.209ZM70.8155 224.212C70.8124 224.211 70.8109 224.21 70.8109 224.21C70.8109 224.209 70.8124 224.21 70.8155 224.212ZM73.6653 224.143C73.6653 224.142 73.6668 224.143 73.6699 224.145C73.6668 224.144 73.6653 224.143 73.6653 224.143ZM73.6923 224.144C73.6954 224.142 73.6969 224.142 73.6969 224.142C73.6973 224.142 73.6958 224.143 73.6923 224.144ZM77.9746 225.426C77.9746 225.426 77.9762 225.425 77.9793 225.424C77.9762 225.426 77.9746 225.427 77.9746 225.426ZM78.0017 225.424C78.0048 225.425 78.0063 225.425 78.0063 225.426C78.0063 225.426 78.0048 225.425 78.0017 225.424ZM80.8321 225.359C80.8321 225.359 80.8337 225.358 80.8368 225.357C80.8337 225.36 80.8321 225.36 80.8321 225.359ZM80.8584 225.357C80.8615 225.357 80.863 225.358 80.863 225.359C80.863 225.359 80.8615 225.359 80.8584 225.357ZM82.2601 223.944C82.2632 223.941 82.2647 223.941 82.2647 223.941C82.2647 223.942 82.2632 223.943 82.2601 223.944ZM75.1253 225.491C75.1222 225.493 75.1206 225.494 75.1206 225.494C75.1206 225.493 75.1222 225.492 75.1253 225.491ZM75.1523 225.493C75.1523 225.493 75.1508 225.492 75.1477 225.491C75.1508 225.491 75.1523 225.492 75.1523 225.493Z" fill="#2D3144"/>
<path fill-rule="evenodd" clip-rule="evenodd" d="M173.288 26.0183C173.416 25.835 173.658 25.7982 173.829 25.9359L178.498 29.707C178.668 29.8448 178.703 30.1049 178.575 30.2881C178.446 30.4713 178.204 30.5082 178.034 30.3705L173.365 26.5993C173.194 26.4616 173.16 26.2014 173.288 26.0183Z" fill="#2D3144"/>
<path fill-rule="evenodd" clip-rule="evenodd" d="M177.918 25.3132C178.089 25.4509 178.123 25.7111 177.995 25.8943L174.485 30.9109C174.357 31.0941 174.115 31.1309 173.944 30.9932C173.773 30.8555 173.739 30.5953 173.867 30.4121L177.377 25.3956C177.505 25.2124 177.748 25.1755 177.918 25.3132Z" fill="#2D3144"/>
</g>
</svg>
