<svg width="35" height="35" viewBox="0 0 35 35" fill="none" xmlns="http://www.w3.org/2000/svg">
<rect y="1.02942" width="35" height="33.9706" rx="16.9853" fill="#EC5B6D"/>
<path d="M13.1455 25.2666C13.8057 25.2666 14.1738 25.0508 14.6816 24.2637L17.335 20.2773H17.4111L20.1152 24.3271C20.5342 24.9619 20.8896 25.2666 21.6133 25.2666C22.6162 25.2666 23.3779 24.6318 23.3779 23.6289C23.3779 23.2227 23.251 22.8672 22.9717 22.4863L19.8105 18.1191L22.9209 13.9678C23.2764 13.5107 23.416 13.1426 23.416 12.6855C23.416 11.7461 22.7178 11.1113 21.6768 11.1113C20.9912 11.1113 20.5977 11.416 20.1025 12.1904L17.6143 15.9863H17.5381L14.999 12.165C14.5039 11.3779 14.1104 11.1113 13.3613 11.1113C12.3457 11.1113 11.584 11.8096 11.584 12.7363C11.584 13.168 11.7109 13.5361 11.9775 13.8916L15.1514 18.2207L11.9648 22.4863C11.6094 22.9561 11.4697 23.3115 11.4697 23.7559C11.4697 24.6445 12.168 25.2666 13.1455 25.2666Z" fill="#222330"/>
</svg>
