<svg width="268" height="214" viewBox="0 0 268 214" fill="none" xmlns="http://www.w3.org/2000/svg">
<path d="M107.323 186.484C102.078 187.963 96.3221 187.64 91.6957 184.305C88.7906 182.207 86.8811 179.356 85.0252 176.612C84.2182 175.402 83.4648 174.272 82.6312 173.223C80.3985 170.372 76.848 167.951 73.9698 169L72.168 163.943C77.9238 161.872 83.7071 165.88 86.8811 169.915C87.8223 171.125 88.683 172.389 89.517 173.627C91.1576 176.101 92.7446 178.441 94.8697 179.948C98.8237 182.799 106.14 183.014 112.488 177.957C118.002 173.546 121.472 166.633 124.511 160.527L129.326 162.948C126.018 169.565 122.279 177.042 115.85 182.18C113.402 184.063 110.47 185.596 107.323 186.484Z" stroke="#78D2EE" stroke-width="0.53796" stroke-miterlimit="10" stroke-linejoin="round"/>
<path d="M73.082 166.445C77.3589 164.912 81.9583 167.978 84.7558 171.556C87.5533 175.133 89.5704 179.464 93.2555 182.127C99.3613 186.511 108.265 184.736 114.128 180.056C119.992 175.375 123.516 168.435 126.878 161.711" stroke="#78D2EE" stroke-width="0.53796" stroke-miterlimit="10" stroke-linejoin="round"/>
<path d="M118.164 164.724C117.572 163.701 117.195 163.056 116.604 162.034L118.379 152.055C118.702 150.279 119.212 148.208 121.095 147.697C122.279 147.374 123.516 147.832 124.323 148.746C125.991 150.656 125.803 153.158 125.587 155.471C127.82 153.05 129.757 150.333 131.989 147.912C134.087 145.68 136.562 143.259 139.628 143.367C142.695 143.474 145.008 146.083 146.944 148.504C148.558 150.521 150.253 152.915 149.661 155.444C149.15 157.703 146.944 159.129 144.927 160.312C139.198 163.674 133.441 167.037 127.712 170.399C124.646 168.086 121.66 166.015 118.164 164.724Z" fill="#ADB5FF"/>
<path d="M123.354 168.166L125.532 168.785L129.002 171.34L142.532 147.831C142.532 147.831 137.206 143.097 135.753 144.577C134.274 146.029 123.354 168.166 123.354 168.166Z" fill="#5E64FF"/>
<path d="M210.127 205.205L146.029 17L255.074 35.9361L229.736 208.621L210.127 205.205Z" fill="#B2A6FF"/>
<path d="M267.124 77.063L195.468 114.881L192.267 107.054L263.923 69.2357L267.124 77.063Z" fill="white"/>
<g opacity="0.4">
<path opacity="0.3" d="M254.079 37.9001C254.778 38.0346 255.235 38.707 255.128 39.4064C254.993 40.1057 254.321 40.5632 253.621 40.4555C252.922 40.3209 252.465 39.6485 252.572 38.9491C252.68 38.2498 253.353 37.7656 254.079 37.9001Z" fill="#303030"/>
</g>
<g opacity="0.4">
<path opacity="0.3" d="M260.426 39.0563C261.126 39.1908 261.583 39.8633 261.475 40.5627C261.341 41.2621 260.669 41.7192 259.969 41.6116C259.27 41.4773 258.812 40.8046 258.92 40.1054C259.055 39.406 259.727 38.9219 260.426 39.0563Z" fill="#303030"/>
</g>
<g opacity="0.4">
<path opacity="0.3" d="M256.661 41.6657C257.36 41.8003 257.817 42.4727 257.71 43.172C257.575 43.8714 256.903 44.3285 256.204 44.2209C255.504 44.0867 255.047 43.4139 255.154 42.7145C255.289 41.9885 255.961 41.531 256.661 41.6657Z" fill="#303030"/>
</g>
<g opacity="0.4">
<path opacity="0.3" d="M250.313 40.5089C251.012 40.6435 251.47 41.3159 251.362 42.0153C251.228 42.7146 250.555 43.1718 249.856 43.0641C249.156 42.9299 248.699 42.2571 248.807 41.5581C248.941 40.8318 249.614 40.3744 250.313 40.5089Z" fill="#303030"/>
</g>
<g opacity="0.4">
<path opacity="0.3" d="M257.817 35.3178C258.516 35.4523 258.973 36.1247 258.866 36.8241C258.732 37.5234 258.059 37.9807 257.36 37.8731C256.66 37.7386 256.203 37.0662 256.311 36.3668C256.445 35.6406 257.118 35.1833 257.817 35.3178Z" fill="#303030"/>
</g>
<g opacity="0.4">
<path opacity="0.3" d="M251.469 34.1611C252.169 34.2955 252.626 34.968 252.518 35.6673C252.384 36.3667 251.711 36.8239 251.012 36.7163C250.313 36.5819 249.856 35.9094 249.963 35.2101C250.097 34.4838 250.77 34.0266 251.469 34.1611Z" fill="#303030"/>
</g>
<g opacity="0.4">
<path opacity="0.3" d="M255.208 31.5518C255.907 31.6863 256.364 32.3588 256.256 33.0581C256.122 33.7575 255.449 34.2147 254.75 34.1071C254.051 33.9726 253.594 33.3002 253.701 32.6009C253.836 31.9015 254.508 31.4174 255.208 31.5518Z" fill="#303030"/>
</g>
<g opacity="0.4">
<path opacity="0.3" d="M261.583 32.7085C262.282 32.8429 262.739 33.5154 262.631 34.2147C262.497 34.9141 261.824 35.3713 261.125 35.2637C260.426 35.1293 259.969 34.4568 260.076 33.7574C260.211 33.0581 260.883 32.5739 261.583 32.7085Z" fill="#303030"/>
</g>
<g opacity="0.4">
<path opacity="0.3" d="M251.766 50.5955C252.465 50.7301 252.923 51.4025 252.815 52.1019C252.68 52.8012 252.008 53.2584 251.309 53.1511C250.609 53.0165 250.152 52.3441 250.26 51.6447C250.394 50.9454 251.066 50.4879 251.766 50.5955Z" fill="#303030"/>
</g>
<g opacity="0.4">
<path opacity="0.3" d="M258.114 51.7524C258.813 51.887 259.27 52.5594 259.163 53.2587C259.028 53.9581 258.356 54.4152 257.657 54.3076C256.957 54.1734 256.5 53.501 256.607 52.8016C256.742 52.1022 257.414 51.6447 258.114 51.7524Z" fill="#303030"/>
</g>
<g opacity="0.4">
<path opacity="0.3" d="M254.348 54.3612C255.048 54.4958 255.505 55.1682 255.397 55.8676C255.263 56.567 254.59 57.0245 253.891 56.9168C253.192 56.7822 252.734 56.1098 252.842 55.4105C252.976 54.7111 253.649 54.227 254.348 54.3612Z" fill="#303030"/>
</g>
<g opacity="0.4">
<path opacity="0.3" d="M247.998 53.2047C248.698 53.339 249.155 54.0113 249.047 54.7107C248.913 55.4101 248.241 55.8676 247.541 55.76C246.842 55.6253 246.385 54.953 246.492 54.2536C246.626 53.5542 247.299 53.0701 247.998 53.2047Z" fill="#303030"/>
</g>
<g opacity="0.4">
<path opacity="0.3" d="M255.504 48.0133C256.204 48.1479 256.661 48.8203 256.553 49.5197C256.419 50.219 255.747 50.6762 255.047 50.5685C254.348 50.4343 253.89 49.7619 253.998 49.0625C254.133 48.3362 254.805 47.879 255.504 48.0133Z" fill="#303030"/>
</g>
<g opacity="0.4">
<path opacity="0.3" d="M249.156 46.8568C249.856 46.9914 250.313 47.6638 250.206 48.3631C250.071 49.0625 249.399 49.5196 248.699 49.412C248 49.2774 247.543 48.605 247.65 47.9056C247.785 47.1796 248.457 46.7221 249.156 46.8568Z" fill="#303030"/>
</g>
<g opacity="0.4">
<path opacity="0.3" d="M252.922 44.2479C253.621 44.3825 254.079 45.0549 253.971 45.7543C253.837 46.4537 253.164 46.9108 252.465 46.8032C251.766 46.6689 251.308 45.9962 251.416 45.2972C251.55 44.5978 252.223 44.1403 252.922 44.2479Z" fill="#303030"/>
</g>
<g opacity="0.4">
<path opacity="0.3" d="M259.27 45.4041C259.969 45.5387 260.427 46.2111 260.319 46.9104C260.185 47.6098 259.512 48.0669 258.813 47.9593C258.114 47.8251 257.656 47.1527 257.764 46.4533C257.898 45.7539 258.571 45.2698 259.27 45.4041Z" fill="#303030"/>
</g>
<g opacity="0.4">
<path opacity="0.3" d="M249.451 63.3186C250.151 63.4528 250.608 64.1256 250.501 64.8249C250.366 65.5239 249.694 65.9814 248.994 65.8738C248.295 65.7392 247.838 65.0668 247.945 64.3674C248.08 63.6414 248.752 63.1839 249.451 63.3186Z" fill="#303030"/>
</g>
<g opacity="0.4">
<path opacity="0.3" d="M255.799 64.4746C256.499 64.6093 256.956 65.2816 256.848 65.981C256.714 66.6804 256.042 67.1375 255.342 67.0299C254.643 66.8956 254.185 66.2233 254.293 65.5239C254.428 64.7975 255.1 64.3404 255.799 64.4746Z" fill="#303030"/>
</g>
<g opacity="0.4">
<path opacity="0.3" d="M252.034 67.057C252.733 67.1916 253.19 67.8639 253.083 68.5633C252.948 69.2627 252.276 69.7202 251.577 69.6126C250.877 69.478 250.42 68.8056 250.527 68.1062C250.662 67.4068 251.334 66.9227 252.034 67.057Z" fill="#303030"/>
</g>
<g opacity="0.4">
<path opacity="0.3" d="M245.686 65.9008C246.385 66.0351 246.843 66.7078 246.735 67.4072C246.6 68.1066 245.928 68.5637 245.229 68.4561C244.529 68.3214 244.072 67.6491 244.18 66.9497C244.314 66.2503 244.986 65.7932 245.686 65.9008Z" fill="#303030"/>
</g>
<g opacity="0.4">
<path opacity="0.3" d="M253.192 60.7093C253.891 60.8435 254.348 61.5163 254.241 62.2153C254.107 62.9147 253.434 63.3722 252.735 63.2645C252.035 63.1299 251.578 62.4575 251.686 61.7582C251.82 61.0588 252.493 60.5747 253.192 60.7093Z" fill="#303030"/>
</g>
<g opacity="0.4">
<path opacity="0.3" d="M246.844 59.5528C247.543 59.6874 248.001 60.3598 247.893 61.0592C247.759 61.7585 247.086 62.2157 246.387 62.108C245.687 61.9738 245.23 61.3014 245.338 60.6021C245.472 59.9027 246.145 59.4185 246.844 59.5528Z" fill="#303030"/>
</g>
<g opacity="0.4">
<path opacity="0.3" d="M243.104 62.1616C243.803 62.2959 244.261 62.9686 244.153 63.668C244.018 64.3674 243.346 64.8245 242.647 64.7169C241.947 64.5823 241.49 63.9099 241.598 63.2105C241.732 62.4845 242.405 62.027 243.104 62.1616Z" fill="#303030"/>
</g>
<g opacity="0.4">
<path opacity="0.3" d="M250.61 56.9709C251.309 57.1051 251.766 57.7775 251.659 58.4769C251.524 59.1762 250.852 59.6337 250.152 59.5261C249.453 59.3915 248.996 58.7191 249.104 58.0197C249.238 57.2934 249.91 56.8362 250.61 56.9709Z" fill="#303030"/>
</g>
<g opacity="0.4">
<path opacity="0.3" d="M256.958 58.1004C257.657 58.2346 258.114 58.907 258.006 59.6064C257.872 60.3058 257.2 60.7633 256.5 60.6556C255.801 60.521 255.344 59.8486 255.451 59.1493C255.586 58.4499 256.258 57.9928 256.958 58.1004Z" fill="#303030"/>
</g>
<g opacity="0.4">
<path opacity="0.3" d="M247.139 76.0141C247.838 76.1484 248.296 76.8211 248.188 77.5205C248.053 78.2195 247.381 78.677 246.682 78.5694C245.982 78.4347 245.525 77.7624 245.633 77.063C245.767 76.337 246.439 75.8795 247.139 76.0141Z" fill="#303030"/>
</g>
<g opacity="0.4">
<path opacity="0.3" d="M253.487 77.171C254.186 77.3052 254.643 77.978 254.536 78.6774C254.402 79.3764 253.729 79.8339 253.03 79.7262C252.33 79.5916 251.873 78.9192 251.981 78.2199C252.115 77.4935 252.788 77.0364 253.487 77.171Z" fill="#303030"/>
</g>
<g opacity="0.4">
<path opacity="0.3" d="M249.748 79.7532C250.448 79.8875 250.905 80.5602 250.797 81.2596C250.663 81.9586 249.99 82.4161 249.291 82.3085C248.592 82.1739 248.135 81.5015 248.242 80.8021C248.35 80.1027 249.022 79.6456 249.748 79.7532Z" fill="#303030"/>
</g>
<g opacity="0.4">
<path opacity="0.3" d="M243.373 78.6234C244.073 78.758 244.53 79.4304 244.422 80.1298C244.288 80.8291 243.615 81.2863 242.916 81.1786C242.217 81.0444 241.76 80.372 241.867 79.6726C242.001 78.9463 242.674 78.4891 243.373 78.6234Z" fill="#303030"/>
</g>
<g opacity="0.4">
<path opacity="0.3" d="M250.877 73.4053C251.577 73.5399 252.034 74.2123 251.926 74.9117C251.792 75.6111 251.12 76.0682 250.42 75.9606C249.721 75.8263 249.264 75.1536 249.371 74.4542C249.506 73.7552 250.178 73.2977 250.877 73.4053Z" fill="#303030"/>
</g>
<g opacity="0.4">
<path opacity="0.3" d="M244.529 72.2485C245.229 72.3831 245.686 73.0555 245.579 73.7548C245.444 74.4542 244.772 74.9113 244.072 74.8037C243.373 74.6695 242.916 73.9967 243.023 73.2973C243.158 72.5983 243.83 72.1408 244.529 72.2485Z" fill="#303030"/>
</g>
<g opacity="0.4">
<path opacity="0.3" d="M248.295 69.6665C248.994 69.8008 249.452 70.4732 249.344 71.1725C249.21 71.8719 248.537 72.3294 247.838 72.2218C247.139 72.0872 246.681 71.4148 246.789 70.7154C246.923 69.989 247.596 69.5319 248.295 69.6665Z" fill="#303030"/>
</g>
<g opacity="0.4">
<path opacity="0.3" d="M254.643 70.8234C255.342 70.9576 255.8 71.63 255.692 72.3294C255.558 73.0288 254.885 73.4863 254.186 73.3786C253.487 73.244 253.029 72.5717 253.137 71.8723C253.271 71.1459 253.944 70.6888 254.643 70.8234Z" fill="#303030"/>
</g>
<g opacity="0.4">
<path opacity="0.3" d="M244.826 88.7097C245.526 88.8443 245.983 89.5167 245.876 90.2161C245.741 90.9155 245.069 91.3726 244.369 91.265C243.67 91.1307 243.213 90.458 243.32 89.759C243.455 89.0596 244.127 88.5755 244.826 88.7097Z" fill="#303030"/>
</g>
<g opacity="0.4">
<path opacity="0.3" d="M251.174 89.8666C251.874 90.0012 252.331 90.6736 252.224 91.373C252.089 92.0723 251.417 92.5295 250.717 92.4218C250.018 92.2876 249.56 91.6148 249.668 90.9158C249.803 90.2165 250.475 89.7323 251.174 89.8666Z" fill="#303030"/>
</g>
<g opacity="0.4">
<path opacity="0.3" d="M247.434 92.4759C248.133 92.6105 248.591 93.2829 248.483 93.9822C248.348 94.6816 247.676 95.1387 246.977 95.0311C246.277 94.8969 245.82 94.2245 245.928 93.5251C246.062 92.7987 246.735 92.3416 247.434 92.4759Z" fill="#303030"/>
</g>
<g opacity="0.4">
<path opacity="0.3" d="M241.087 91.319C241.786 91.4536 242.243 92.126 242.135 92.8254C242.001 93.5248 241.328 93.9819 240.629 93.8743C239.93 93.74 239.473 93.0676 239.58 92.3683C239.688 91.6419 240.36 91.1848 241.087 91.319Z" fill="#303030"/>
</g>
<g opacity="0.4">
<path opacity="0.3" d="M248.592 86.1275C249.291 86.2621 249.749 86.9345 249.641 87.6339C249.507 88.3333 248.834 88.7904 248.135 88.6828C247.435 88.5485 246.978 87.8758 247.086 87.1764C247.22 86.4504 247.866 85.9929 248.592 86.1275Z" fill="#303030"/>
</g>
<g opacity="0.4">
<path opacity="0.3" d="M242.217 84.9714C242.916 85.106 243.374 85.7784 243.266 86.4778C243.132 87.1771 242.459 87.6343 241.76 87.5266C241.06 87.3924 240.603 86.7196 240.711 86.0203C240.845 85.2943 241.518 84.8368 242.217 84.9714Z" fill="#303030"/>
</g>
<g opacity="0.4">
<path opacity="0.3" d="M245.983 82.3618C246.682 82.4964 247.139 83.1688 247.032 83.8681C246.897 84.5675 246.225 85.0246 245.525 84.9174C244.826 84.7828 244.369 84.1104 244.477 83.411C244.611 82.7116 245.283 82.2275 245.983 82.3618Z" fill="#303030"/>
</g>
<g opacity="0.4">
<path opacity="0.3" d="M252.331 83.5186C253.03 83.6532 253.487 84.3256 253.38 85.025C253.245 85.7244 252.573 86.1815 251.874 86.0742C251.174 85.9396 250.717 85.2672 250.824 84.5679C250.959 83.8685 251.631 83.3844 252.331 83.5186Z" fill="#303030"/>
</g>
<g opacity="0.4">
<path opacity="0.3" d="M242.512 101.406C243.211 101.54 243.669 102.213 243.561 102.912C243.427 103.611 242.754 104.069 242.055 103.961C241.355 103.827 240.898 103.154 241.006 102.455C241.14 101.756 241.813 101.298 242.512 101.406Z" fill="#303030"/>
</g>
<g opacity="0.4">
<path opacity="0.3" d="M248.86 102.562C249.559 102.697 250.016 103.369 249.909 104.069C249.774 104.768 249.102 105.225 248.403 105.117C247.703 104.983 247.246 104.31 247.353 103.611C247.488 102.912 248.16 102.455 248.86 102.562Z" fill="#303030"/>
</g>
<g opacity="0.4">
<path opacity="0.3" d="M245.121 105.172C245.821 105.306 246.278 105.979 246.171 106.678C246.036 107.377 245.364 107.835 244.664 107.727C243.965 107.593 243.508 106.92 243.615 106.221C243.75 105.521 244.422 105.037 245.121 105.172Z" fill="#303030"/>
</g>
<g opacity="0.4">
<path opacity="0.3" d="M238.774 104.015C239.473 104.149 239.931 104.822 239.823 105.521C239.688 106.22 239.016 106.678 238.317 106.57C237.617 106.436 237.16 105.763 237.268 105.064C237.402 104.365 238.075 103.88 238.774 104.015Z" fill="#303030"/>
</g>
<g opacity="0.4">
<path opacity="0.3" d="M246.278 98.8235C246.977 98.9581 247.434 99.6305 247.327 100.33C247.192 101.029 246.52 101.487 245.82 101.379C245.121 101.244 244.664 100.572 244.772 99.8727C244.906 99.1463 245.579 98.6892 246.278 98.8235Z" fill="#303030"/>
</g>
<g opacity="0.4">
<path opacity="0.3" d="M239.93 97.667C240.63 97.8016 241.087 98.474 240.979 99.1734C240.844 99.8728 240.172 100.33 239.473 100.222C238.773 100.088 238.316 99.4153 238.424 98.7159C238.559 97.9899 239.204 97.5324 239.93 97.667Z" fill="#303030"/>
</g>
<g opacity="0.4">
<path opacity="0.3" d="M236.165 100.276C236.864 100.411 237.321 101.083 237.214 101.783C237.079 102.482 236.407 102.939 235.707 102.831C235.008 102.697 234.551 102.024 234.658 101.325C234.793 100.599 235.465 100.142 236.165 100.276Z" fill="#303030"/>
</g>
<g opacity="0.4">
<path opacity="0.3" d="M243.668 95.0581C244.368 95.1927 244.825 95.8651 244.717 96.5645C244.583 97.2638 243.91 97.721 243.211 97.6133C242.512 97.4791 242.055 96.8067 242.162 96.1073C242.296 95.408 242.969 94.9505 243.668 95.0581Z" fill="#303030"/>
</g>
<g opacity="0.4">
<path opacity="0.3" d="M250.016 96.2142C250.715 96.3488 251.173 97.0212 251.065 97.7206C250.931 98.42 250.258 98.8771 249.559 98.7695C248.86 98.6352 248.402 97.9628 248.51 97.2635C248.644 96.5641 249.317 96.1066 250.016 96.2142Z" fill="#303030"/>
</g>
<g opacity="0.4">
<path opacity="0.3" d="M240.2 114.129C240.899 114.263 241.356 114.936 241.249 115.635C241.114 116.334 240.442 116.792 239.742 116.684C239.043 116.549 238.586 115.877 238.693 115.178C238.828 114.452 239.5 113.994 240.2 114.129Z" fill="#303030"/>
</g>
<g opacity="0.4">
<path opacity="0.3" d="M246.547 115.285C247.247 115.42 247.704 116.092 247.597 116.791C247.462 117.491 246.79 117.948 246.09 117.841C245.391 117.706 244.934 117.034 245.041 116.334C245.176 115.608 245.848 115.151 246.547 115.285Z" fill="#303030"/>
</g>
<g opacity="0.4">
<path opacity="0.3" d="M242.809 117.867C243.508 118.002 243.966 118.674 243.858 119.373C243.723 120.073 243.051 120.53 242.352 120.423C241.652 120.288 241.195 119.616 241.303 118.916C241.437 118.217 242.11 117.733 242.809 117.867Z" fill="#303030"/>
</g>
<g opacity="0.4">
<path opacity="0.3" d="M236.461 116.711C237.161 116.846 237.618 117.518 237.51 118.217C237.376 118.917 236.703 119.374 236.004 119.266C235.305 119.132 234.847 118.459 234.955 117.76C235.09 117.06 235.762 116.603 236.461 116.711Z" fill="#303030"/>
</g>
<g opacity="0.4">
<path opacity="0.3" d="M243.965 111.519C244.664 111.654 245.122 112.326 245.014 113.026C244.88 113.725 244.207 114.182 243.508 114.075C242.809 113.94 242.351 113.268 242.459 112.568C242.593 111.869 243.266 111.385 243.965 111.519Z" fill="#303030"/>
</g>
<g opacity="0.4">
<path opacity="0.3" d="M237.618 110.363C238.317 110.497 238.774 111.17 238.667 111.869C238.532 112.568 237.86 113.025 237.16 112.918C236.461 112.783 236.004 112.111 236.111 111.411C236.246 110.712 236.918 110.228 237.618 110.363Z" fill="#303030"/>
</g>
<g opacity="0.4">
<path opacity="0.3" d="M241.356 107.78C242.055 107.915 242.513 108.587 242.405 109.287C242.27 109.986 241.598 110.443 240.899 110.336C240.199 110.201 239.742 109.529 239.85 108.83C239.984 108.103 240.657 107.646 241.356 107.78Z" fill="#303030"/>
</g>
<g opacity="0.4">
<path opacity="0.3" d="M247.704 108.937C248.403 109.072 248.86 109.744 248.753 110.444C248.618 111.143 247.946 111.6 247.246 111.492C246.547 111.358 246.09 110.686 246.197 109.986C246.332 109.26 247.004 108.803 247.704 108.937Z" fill="#303030"/>
</g>
<g opacity="0.4">
<path opacity="0.3" d="M237.885 126.825C238.585 126.959 239.042 127.632 238.934 128.331C238.8 129.03 238.127 129.488 237.428 129.38C236.728 129.245 236.271 128.573 236.379 127.874C236.513 127.174 237.186 126.69 237.885 126.825Z" fill="#303030"/>
</g>
<g opacity="0.4">
<path opacity="0.3" d="M244.26 127.981C244.959 128.116 245.417 128.788 245.309 129.488C245.175 130.187 244.502 130.644 243.803 130.536C243.103 130.402 242.646 129.729 242.754 129.03C242.862 128.304 243.534 127.847 244.26 127.981Z" fill="#303030"/>
</g>
<g opacity="0.4">
<path opacity="0.3" d="M240.495 130.563C241.194 130.698 241.651 131.37 241.544 132.07C241.409 132.769 240.737 133.226 240.037 133.119C239.338 132.984 238.881 132.312 238.988 131.612C239.123 130.913 239.795 130.456 240.495 130.563Z" fill="#303030"/>
</g>
<g opacity="0.4">
<path opacity="0.3" d="M234.147 129.433C234.846 129.568 235.304 130.24 235.196 130.94C235.062 131.639 234.389 132.096 233.69 131.988C232.991 131.854 232.533 131.181 232.641 130.482C232.775 129.756 233.448 129.299 234.147 129.433Z" fill="#303030"/>
</g>
<g opacity="0.4">
<path opacity="0.3" d="M241.651 124.215C242.35 124.349 242.807 125.022 242.7 125.721C242.565 126.42 241.893 126.878 241.193 126.77C240.494 126.636 240.037 125.963 240.145 125.264C240.279 124.565 240.952 124.107 241.651 124.215Z" fill="#303030"/>
</g>
<g opacity="0.4">
<path opacity="0.3" d="M235.303 123.059C236.003 123.193 236.46 123.866 236.352 124.565C236.218 125.264 235.545 125.722 234.846 125.614C234.146 125.48 233.689 124.807 233.797 124.108C233.932 123.408 234.604 122.951 235.303 123.059Z" fill="#303030"/>
</g>
<g opacity="0.4">
<path opacity="0.3" d="M239.044 120.477C239.743 120.611 240.2 121.284 240.092 121.983C239.958 122.682 239.285 123.14 238.586 123.032C237.887 122.897 237.43 122.225 237.537 121.526C237.671 120.799 238.344 120.342 239.044 120.477Z" fill="#303030"/>
</g>
<g opacity="0.4">
<path opacity="0.3" d="M245.391 121.632C246.09 121.767 246.548 122.439 246.44 123.139C246.305 123.838 245.633 124.295 244.934 124.188C244.234 124.053 243.777 123.381 243.885 122.682C244.019 121.955 244.691 121.498 245.391 121.632Z" fill="#303030"/>
</g>
<g opacity="0.4">
<path opacity="0.3" d="M235.6 139.52C236.3 139.655 236.757 140.327 236.649 141.026C236.515 141.726 235.842 142.183 235.143 142.075C234.444 141.941 233.986 141.269 234.094 140.569C234.201 139.87 234.874 139.386 235.6 139.52Z" fill="#303030"/>
</g>
<g opacity="0.4">
<path opacity="0.3" d="M241.948 140.677C242.647 140.811 243.104 141.484 242.997 142.184C242.862 142.883 242.19 143.34 241.49 143.232C240.791 143.098 240.334 142.425 240.441 141.726C240.576 141.027 241.248 140.543 241.948 140.677Z" fill="#303030"/>
</g>
<g opacity="0.4">
<path opacity="0.3" d="M238.182 143.286C238.882 143.42 239.339 144.093 239.231 144.792C239.096 145.491 238.424 145.949 237.725 145.841C237.025 145.706 236.568 145.034 236.676 144.335C236.81 143.609 237.483 143.151 238.182 143.286Z" fill="#303030"/>
</g>
<g opacity="0.4">
<path opacity="0.3" d="M231.835 142.129C232.534 142.264 232.991 142.936 232.883 143.636C232.749 144.335 232.076 144.792 231.377 144.685C230.678 144.55 230.221 143.878 230.328 143.178C230.463 142.452 231.135 141.995 231.835 142.129Z" fill="#303030"/>
</g>
<g opacity="0.4">
<path opacity="0.3" d="M239.338 136.938C240.038 137.072 240.495 137.745 240.387 138.444C240.253 139.143 239.58 139.601 238.881 139.493C238.182 139.359 237.724 138.686 237.832 137.987C237.966 137.261 238.639 136.803 239.338 136.938Z" fill="#303030"/>
</g>
<g opacity="0.4">
<path opacity="0.3" d="M232.991 135.782C233.69 135.916 234.147 136.589 234.04 137.288C233.905 137.987 233.233 138.445 232.534 138.337C231.834 138.203 231.377 137.53 231.484 136.831C231.619 136.104 232.291 135.647 232.991 135.782Z" fill="#303030"/>
</g>
<g opacity="0.4">
<path opacity="0.3" d="M236.729 133.172C237.428 133.307 237.886 133.979 237.778 134.678C237.643 135.378 236.971 135.835 236.272 135.728C235.572 135.593 235.115 134.921 235.223 134.221C235.357 133.522 236.03 133.038 236.729 133.172Z" fill="#303030"/>
</g>
<g opacity="0.4">
<path opacity="0.3" d="M243.104 134.329C243.803 134.463 244.261 135.136 244.153 135.835C244.018 136.535 243.346 136.992 242.647 136.884C241.947 136.75 241.49 136.077 241.598 135.378C241.732 134.679 242.405 134.195 243.104 134.329Z" fill="#303030"/>
</g>
<g opacity="0.4">
<path opacity="0.3" d="M233.286 152.216C233.985 152.351 234.442 153.023 234.335 153.722C234.2 154.422 233.528 154.879 232.829 154.772C232.129 154.637 231.672 153.965 231.779 153.265C231.914 152.566 232.586 152.109 233.286 152.216Z" fill="#303030"/>
</g>
<g opacity="0.4">
<path opacity="0.3" d="M239.635 153.373C240.335 153.507 240.792 154.18 240.684 154.879C240.55 155.579 239.877 156.036 239.178 155.928C238.478 155.794 238.021 155.121 238.129 154.422C238.264 153.723 238.936 153.265 239.635 153.373Z" fill="#303030"/>
</g>
<g opacity="0.4">
<path opacity="0.3" d="M237.026 149.634C237.725 149.768 238.182 150.441 238.075 151.14C237.94 151.839 237.268 152.297 236.568 152.189C235.869 152.055 235.412 151.382 235.52 150.683C235.654 149.957 236.327 149.499 237.026 149.634Z" fill="#303030"/>
</g>
<g opacity="0.4">
<path opacity="0.3" d="M230.678 148.477C231.378 148.611 231.835 149.284 231.727 149.983C231.593 150.683 230.92 151.14 230.221 151.032C229.522 150.898 229.064 150.225 229.172 149.526C229.307 148.8 229.979 148.343 230.678 148.477Z" fill="#303030"/>
</g>
<g opacity="0.4">
<path opacity="0.3" d="M234.444 145.868C235.143 146.003 235.6 146.675 235.493 147.374C235.359 148.074 234.686 148.531 233.987 148.423C233.287 148.289 232.83 147.616 232.938 146.917C233.072 146.217 233.745 145.76 234.444 145.868Z" fill="#303030"/>
</g>
<g opacity="0.4">
<path opacity="0.3" d="M240.792 147.024C241.491 147.159 241.948 147.831 241.84 148.531C241.706 149.23 241.033 149.687 240.334 149.58C239.635 149.445 239.178 148.773 239.285 148.074C239.42 147.374 240.092 146.917 240.792 147.024Z" fill="#303030"/>
</g>
<g opacity="0.4">
<path opacity="0.3" d="M245.821 43.1987C245.982 43.1451 246.144 43.0911 246.305 43.0911C246.385 43.0911 246.466 43.0911 246.574 43.1181C247.273 43.2527 247.731 43.9251 247.623 44.6244C247.488 45.3238 246.816 45.7809 246.117 45.6733C246.036 45.6467 245.955 45.6197 245.874 45.5927C245.713 45.5391 245.578 45.4314 245.444 45.3238C245.148 45.0279 244.987 44.5974 245.068 44.1673C245.148 43.7098 245.417 43.3603 245.821 43.1987Z" fill="#303030"/>
</g>
<g opacity="0.4">
<path opacity="0.3" d="M241.356 35.5865C242.055 35.721 242.513 36.3934 242.405 37.0928C242.27 37.7921 241.598 38.2494 240.899 38.1418C240.199 38.0073 239.742 37.3349 239.85 36.6355C239.984 35.9362 240.657 35.4789 241.356 35.5865Z" fill="#303030"/>
</g>
<g opacity="0.4">
<path opacity="0.3" d="M246.977 36.8241C247.138 36.7703 247.3 36.7165 247.461 36.7165C247.542 36.7165 247.622 36.7165 247.73 36.7434C248.429 36.8779 248.887 37.5503 248.779 38.2497C248.645 38.949 247.972 39.4063 247.273 39.2987C247.192 39.2718 247.112 39.2449 247.031 39.218C246.869 39.1642 246.735 39.0566 246.6 38.949C246.305 38.6531 246.143 38.2228 246.224 37.7924C246.305 37.362 246.573 37.0124 246.977 36.8241Z" fill="#303030"/>
</g>
<g opacity="0.4">
<path opacity="0.3" d="M243.965 39.3525C244.664 39.487 245.122 40.1594 245.014 40.8586C244.88 41.558 244.207 42.0155 243.508 41.9079C242.809 41.7732 242.351 41.1009 242.459 40.4015C242.593 39.6753 243.266 39.218 243.965 39.3525Z" fill="#303030"/>
</g>
<g opacity="0.4">
<path opacity="0.3" d="M237.618 38.1956C238.317 38.3301 238.774 39.0025 238.667 39.7019C238.532 40.4012 237.86 40.8586 237.16 40.751C236.461 40.6163 236.004 39.944 236.111 39.2446C236.246 38.5184 236.918 38.0611 237.618 38.1956Z" fill="#303030"/>
</g>
<g opacity="0.4">
<path opacity="0.3" d="M245.121 33.0042C245.821 33.1387 246.278 33.8112 246.171 34.5105C246.036 35.2098 245.364 35.6671 244.664 35.5595C243.965 35.425 243.508 34.7526 243.615 34.0532C243.75 33.327 244.422 32.8697 245.121 33.0042Z" fill="#303030"/>
</g>
<g opacity="0.4">
<path opacity="0.3" d="M238.774 31.8479C239.473 31.9825 239.931 32.6549 239.823 33.3542C239.688 34.0536 239.016 34.5109 238.317 34.4033C237.617 34.2688 237.16 33.5963 237.268 32.897C237.402 32.1707 238.075 31.7135 238.774 31.8479Z" fill="#303030"/>
</g>
<g opacity="0.4">
<path opacity="0.3" d="M242.512 29.2385C243.211 29.373 243.669 30.0455 243.561 30.7448C243.427 31.4442 242.754 31.9014 242.055 31.7939C241.355 31.6593 240.898 30.9869 241.006 30.2876C241.14 29.5882 241.813 29.1041 242.512 29.2385Z" fill="#303030"/>
</g>
<g opacity="0.4">
<path opacity="0.3" d="M248.108 30.4758C248.269 30.4219 248.431 30.3682 248.592 30.3682C248.673 30.3682 248.753 30.3682 248.861 30.3951C249.56 30.5295 250.018 31.202 249.91 31.9014C249.776 32.6007 249.103 33.0579 248.404 32.9503C248.323 32.9235 248.242 32.8966 248.162 32.8697C248 32.8159 247.866 32.7083 247.731 32.6007C247.435 32.3048 247.274 31.8744 247.355 31.4441C247.435 30.9868 247.731 30.664 248.108 30.4758Z" fill="#303030"/>
</g>
<g opacity="0.4">
<path opacity="0.3" d="M244.664 49.5467C244.826 49.4927 244.987 49.4391 245.149 49.4391C245.229 49.4391 245.31 49.4391 245.417 49.4657C246.117 49.6003 246.574 50.2727 246.467 50.9721C246.332 51.6715 245.66 52.1286 244.96 52.0213C244.88 51.9943 244.799 51.9673 244.718 51.9403C244.557 51.8867 244.422 51.7791 244.288 51.6715C243.992 51.3756 243.83 50.9451 243.911 50.515C243.992 50.0575 244.288 49.708 244.664 49.5467Z" fill="#303030"/>
</g>
<g opacity="0.4">
<path opacity="0.3" d="M241.651 52.0483C242.35 52.1829 242.807 52.8553 242.7 53.5546C242.565 54.254 241.893 54.7111 241.193 54.6035C240.494 54.4693 240.037 53.7965 240.145 53.0971C240.279 52.3978 240.952 51.9136 241.651 52.0483Z" fill="#303030"/>
</g>
<g opacity="0.4">
<path opacity="0.3" d="M242.809 45.7002C243.508 45.8348 243.966 46.5072 243.858 47.2066C243.723 47.9059 243.051 48.3631 242.352 48.2555C241.652 48.1212 241.195 47.4488 241.303 46.7495C241.437 46.0501 242.11 45.5659 242.809 45.7002Z" fill="#303030"/>
</g>
<g opacity="0.4">
<path opacity="0.3" d="M240.2 41.935C240.899 42.0692 241.356 42.742 241.249 43.441C241.114 44.1404 240.442 44.5979 239.742 44.4902C239.043 44.3556 238.586 43.6832 238.693 42.9839C238.828 42.2845 239.5 41.8274 240.2 41.935Z" fill="#303030"/>
</g>
<g opacity="0.4">
<path opacity="0.3" d="M240.495 58.3959C241.194 58.5306 241.651 59.2029 241.544 59.9023C241.409 60.6017 240.737 61.0588 240.037 60.9512C239.338 60.8169 238.881 60.1446 238.988 59.4452C239.123 58.7458 239.795 58.2617 240.495 58.3959Z" fill="#303030"/>
</g>
<g opacity="0.4">
<path opacity="0.3" d="M243.508 55.8942C243.669 55.8406 243.831 55.7866 243.992 55.7866C244.073 55.7866 244.154 55.7866 244.261 55.8136C244.961 55.9482 245.418 56.6206 245.31 57.32C245.176 58.0194 244.503 58.4765 243.804 58.3689C243.723 58.3422 243.643 58.3152 243.562 58.2882C243.401 58.2346 243.266 58.127 243.132 58.0194C242.836 57.7235 242.674 57.293 242.755 56.8625C242.836 56.4054 243.132 56.0559 243.508 55.8942Z" fill="#303030"/>
</g>
<g opacity="0.4">
<path opacity="0.3" d="M240.037 74.9383C240.199 74.8847 240.36 74.8307 240.522 74.8307C240.602 74.8307 240.683 74.8307 240.79 74.8577C241.49 74.9919 241.947 75.6647 241.84 76.3641C241.705 77.0631 241.033 77.5206 240.333 77.4129C240.253 77.3859 240.172 77.3589 240.091 77.3323C239.93 77.2783 239.795 77.1707 239.661 77.0631C239.365 76.7672 239.203 76.3371 239.284 75.9066C239.365 75.4494 239.661 75.0996 240.037 74.9383Z" fill="#303030"/>
</g>
<g opacity="0.4">
<path opacity="0.3" d="M241.194 68.5907C241.355 68.5367 241.517 68.483 241.678 68.483C241.758 68.483 241.839 68.483 241.947 68.51C242.646 68.6443 243.104 69.3167 242.996 70.016C242.861 70.7154 242.189 71.1729 241.49 71.0653C241.409 71.0383 241.328 71.0113 241.247 70.9847C241.086 70.9307 240.951 70.823 240.817 70.7154C240.521 70.4195 240.36 69.9894 240.441 69.5589C240.521 69.1018 240.817 68.7519 241.194 68.5907Z" fill="#303030"/>
</g>
<g opacity="0.4">
<path opacity="0.3" d="M237.725 87.6613C237.886 87.6076 238.048 87.5536 238.209 87.5536C238.29 87.5536 238.371 87.5536 238.478 87.5806C239.177 87.7153 239.635 88.3876 239.527 89.087C239.392 89.7864 238.72 90.2435 238.021 90.1359C237.94 90.1089 237.859 90.0823 237.779 90.0553C237.617 90.0016 237.483 89.894 237.348 89.7864C237.052 89.4905 236.891 89.06 236.972 88.6295C237.052 88.1724 237.348 87.8229 237.725 87.6613Z" fill="#303030"/>
</g>
<g opacity="0.4">
<path opacity="0.3" d="M238.881 81.2863C239.042 81.2323 239.204 81.1786 239.365 81.1786C239.446 81.1786 239.527 81.1786 239.634 81.2056C240.334 81.3399 240.791 82.0123 240.683 82.7116C240.549 83.411 239.876 83.8685 239.177 83.7609C239.096 83.7339 239.016 83.7069 238.935 83.6799C238.774 83.6263 238.639 83.5186 238.505 83.411C238.209 83.1151 238.047 82.685 238.128 82.2545C238.209 81.7974 238.505 81.4745 238.881 81.2863Z" fill="#303030"/>
</g>
<g opacity="0.4">
<path opacity="0.3" d="M234.254 106.704C234.416 106.651 234.577 106.597 234.738 106.597C234.819 106.597 234.9 106.597 235.008 106.624C235.707 106.758 236.164 107.431 236.056 108.13C235.922 108.83 235.249 109.287 234.55 109.179C234.469 109.152 234.389 109.125 234.308 109.098C234.147 109.045 234.012 108.937 233.878 108.83C233.582 108.534 233.421 108.103 233.501 107.673C233.582 107.216 233.878 106.866 234.254 106.704Z" fill="#303030"/>
</g>
<g opacity="0.4">
<path opacity="0.3" d="M236.569 94.0089C236.73 93.9552 236.891 93.9016 237.053 93.9016C237.133 93.9016 237.214 93.9016 237.322 93.9282C238.021 94.0629 238.478 94.7352 238.371 95.4346C238.236 96.134 237.564 96.5911 236.864 96.4835C236.784 96.4569 236.703 96.4299 236.623 96.4029C236.461 96.3492 236.327 96.2416 236.192 96.134C235.896 95.8381 235.735 95.4076 235.816 94.9775C235.896 94.52 236.192 94.1705 236.569 94.0089Z" fill="#303030"/>
</g>
<g opacity="0.4">
<path opacity="0.3" d="M233.098 113.053C233.26 112.999 233.421 112.945 233.582 112.945C233.663 112.945 233.744 112.945 233.851 112.972C234.55 113.106 235.008 113.779 234.9 114.478C234.766 115.177 234.093 115.635 233.394 115.527C233.313 115.5 233.233 115.473 233.152 115.446C232.99 115.393 232.856 115.285 232.721 115.177C232.426 114.881 232.264 114.451 232.345 114.021C232.426 113.564 232.721 113.214 233.098 113.053Z" fill="#303030"/>
</g>
<g opacity="0.4">
<path opacity="0.3" d="M230.785 125.748C230.947 125.695 231.108 125.641 231.27 125.641C231.35 125.641 231.431 125.641 231.539 125.668C232.238 125.802 232.695 126.475 232.588 127.174C232.453 127.874 231.781 128.331 231.081 128.223C231.001 128.196 230.92 128.169 230.839 128.142C230.678 128.088 230.544 127.981 230.409 127.874C230.113 127.578 229.952 127.147 230.032 126.717C230.113 126.26 230.409 125.91 230.785 125.748Z" fill="#303030"/>
</g>
<g opacity="0.4">
<path opacity="0.3" d="M231.942 119.401C232.103 119.347 232.265 119.293 232.426 119.293C232.506 119.293 232.587 119.293 232.695 119.32C233.394 119.455 233.852 120.127 233.744 120.826C233.609 121.526 232.937 121.983 232.238 121.876C232.157 121.849 232.076 121.822 231.996 121.795C231.834 121.741 231.7 121.633 231.565 121.526C231.269 121.23 231.108 120.8 231.189 120.369C231.269 119.912 231.565 119.562 231.942 119.401Z" fill="#303030"/>
</g>
<g opacity="0.4">
<path opacity="0.3" d="M228.499 138.471C228.66 138.417 228.821 138.363 228.983 138.363C229.063 138.363 229.144 138.363 229.252 138.39C229.951 138.525 230.408 139.197 230.301 139.896C230.166 140.596 229.494 141.053 228.795 140.945C228.714 140.919 228.633 140.892 228.552 140.865C228.391 140.811 228.256 140.703 228.122 140.596C227.826 140.3 227.665 139.869 227.745 139.439C227.826 138.982 228.095 138.632 228.499 138.471Z" fill="#303030"/>
</g>
<g opacity="0.4">
<path opacity="0.3" d="M229.629 132.097C229.791 132.043 229.952 131.989 230.113 131.989C230.194 131.989 230.275 131.989 230.383 132.016C231.082 132.15 231.539 132.823 231.431 133.522C231.297 134.221 230.624 134.679 229.925 134.571C229.844 134.544 229.764 134.517 229.683 134.491C229.522 134.437 229.387 134.329 229.253 134.221C228.957 133.925 228.796 133.495 228.876 133.065C228.984 132.608 229.253 132.285 229.629 132.097Z" fill="#303030"/>
</g>
<g opacity="0.4">
<path opacity="0.3" d="M226.186 151.167C226.347 151.113 226.509 151.059 226.67 151.059C226.751 151.059 226.832 151.059 226.939 151.086C227.639 151.22 228.096 151.893 227.988 152.592C227.854 153.291 227.181 153.749 226.482 153.641C226.401 153.614 226.32 153.587 226.24 153.561C226.079 153.507 225.944 153.399 225.809 153.291C225.513 152.996 225.352 152.565 225.433 152.135C225.513 151.678 225.809 151.328 226.186 151.167Z" fill="#303030"/>
</g>
<g opacity="0.4">
<path opacity="0.3" d="M227.342 144.819C227.504 144.765 227.665 144.712 227.827 144.712C227.907 144.712 227.988 144.712 228.095 144.738C228.795 144.873 229.252 145.545 229.144 146.245C229.01 146.944 228.337 147.401 227.638 147.294C227.557 147.267 227.477 147.24 227.396 147.213C227.235 147.159 227.1 147.052 226.966 146.944C226.67 146.648 226.508 146.218 226.589 145.788C226.67 145.33 226.966 144.981 227.342 144.819Z" fill="#303030"/>
</g>
<g opacity="0.4">
<path opacity="0.3" d="M232.076 158.86C232.776 158.994 233.233 159.666 233.126 160.366C232.991 161.065 232.319 161.523 231.619 161.415C230.92 161.28 230.463 160.608 230.57 159.909C230.705 159.209 231.377 158.725 232.076 158.86Z" fill="#303030"/>
</g>
<g opacity="0.4">
<path opacity="0.3" d="M238.424 160.017C239.124 160.151 239.581 160.823 239.474 161.523C239.339 162.222 238.667 162.68 237.967 162.572C237.268 162.437 236.81 161.765 236.918 161.066C237.053 160.366 237.725 159.882 238.424 160.017Z" fill="#303030"/>
</g>
<g opacity="0.4">
<path opacity="0.3" d="M234.659 162.626C235.358 162.76 235.815 163.432 235.708 164.132C235.573 164.831 234.901 165.288 234.202 165.181C233.502 165.046 233.045 164.374 233.152 163.674C233.287 162.948 233.959 162.491 234.659 162.626Z" fill="#303030"/>
</g>
<g opacity="0.4">
<path opacity="0.3" d="M228.311 161.469C229.01 161.604 229.468 162.276 229.36 162.975C229.225 163.675 228.553 164.132 227.854 164.024C227.154 163.89 226.697 163.217 226.805 162.518C226.939 161.792 227.611 161.335 228.311 161.469Z" fill="#303030"/>
</g>
<g opacity="0.4">
<path opacity="0.3" d="M235.815 156.278C236.514 156.412 236.971 157.085 236.864 157.784C236.73 158.483 236.057 158.94 235.358 158.833C234.658 158.698 234.201 158.026 234.309 157.326C234.443 156.6 235.116 156.143 235.815 156.278Z" fill="#303030"/>
</g>
<g opacity="0.4">
<path opacity="0.3" d="M229.467 155.12C230.166 155.255 230.624 155.927 230.516 156.627C230.382 157.326 229.709 157.783 229.01 157.676C228.31 157.541 227.853 156.869 227.961 156.169C228.095 155.443 228.768 154.986 229.467 155.12Z" fill="#303030"/>
</g>
<g opacity="0.4">
<path opacity="0.3" d="M229.764 171.555C230.463 171.69 230.921 172.362 230.813 173.062C230.678 173.761 230.006 174.218 229.307 174.111C228.607 173.976 228.15 173.304 228.258 172.604C228.392 171.905 229.065 171.448 229.764 171.555Z" fill="#303030"/>
</g>
<g opacity="0.4">
<path opacity="0.3" d="M236.11 172.712C236.809 172.846 237.266 173.519 237.159 174.218C237.024 174.917 236.352 175.374 235.653 175.267C234.953 175.133 234.496 174.46 234.603 173.761C234.738 173.061 235.41 172.604 236.11 172.712Z" fill="#303030"/>
</g>
<g opacity="0.4">
<path opacity="0.3" d="M232.371 175.321C233.071 175.455 233.528 176.128 233.421 176.827C233.286 177.527 232.614 177.984 231.914 177.876C231.215 177.742 230.758 177.069 230.865 176.37C230.973 175.671 231.645 175.187 232.371 175.321Z" fill="#303030"/>
</g>
<g opacity="0.4">
<path opacity="0.3" d="M225.996 174.165C226.696 174.299 227.153 174.972 227.046 175.671C226.911 176.37 226.239 176.828 225.539 176.72C224.84 176.586 224.383 175.913 224.49 175.214C224.625 174.515 225.297 174.03 225.996 174.165Z" fill="#303030"/>
</g>
<g opacity="0.4">
<path opacity="0.3" d="M233.502 168.973C234.202 169.107 234.659 169.78 234.552 170.479C234.417 171.179 233.745 171.636 233.045 171.528C232.346 171.393 231.889 170.721 231.996 170.022C232.131 169.296 232.803 168.838 233.502 168.973Z" fill="#303030"/>
</g>
<g opacity="0.4">
<path opacity="0.3" d="M227.153 167.817C227.852 167.951 228.309 168.624 228.202 169.323C228.067 170.022 227.395 170.48 226.695 170.372C225.996 170.238 225.539 169.565 225.647 168.866C225.781 168.14 226.454 167.682 227.153 167.817Z" fill="#303030"/>
</g>
<g opacity="0.4">
<path opacity="0.3" d="M230.918 165.207C231.618 165.342 232.075 166.014 231.967 166.714C231.833 167.413 231.16 167.87 230.461 167.763C229.762 167.628 229.305 166.956 229.412 166.257C229.546 165.557 230.219 165.1 230.918 165.207Z" fill="#303030"/>
</g>
<g opacity="0.4">
<path opacity="0.3" d="M237.268 166.364C237.967 166.499 238.425 167.171 238.317 167.871C238.183 168.57 237.51 169.027 236.811 168.92C236.112 168.785 235.654 168.113 235.762 167.414C235.896 166.714 236.569 166.257 237.268 166.364Z" fill="#303030"/>
</g>
<g opacity="0.4">
<path opacity="0.3" d="M227.449 184.278C228.149 184.413 228.606 185.085 228.499 185.784C228.364 186.484 227.692 186.941 226.992 186.834C226.293 186.699 225.836 186.027 225.943 185.327C226.078 184.601 226.75 184.144 227.449 184.278Z" fill="#303030"/>
</g>
<g opacity="0.4">
<path opacity="0.3" d="M233.797 185.435C234.497 185.569 234.954 186.242 234.847 186.941C234.712 187.64 234.04 188.097 233.34 187.99C232.641 187.856 232.184 187.183 232.291 186.484C232.426 185.757 233.098 185.3 233.797 185.435Z" fill="#303030"/>
</g>
<g opacity="0.4">
<path opacity="0.3" d="M231.215 181.669C231.914 181.803 232.372 182.476 232.264 183.175C232.13 183.875 231.457 184.332 230.758 184.224C230.059 184.09 229.601 183.417 229.709 182.718C229.843 182.019 230.516 181.535 231.215 181.669Z" fill="#303030"/>
</g>
<g opacity="0.4">
<path opacity="0.3" d="M224.84 180.513C225.539 180.647 225.997 181.32 225.889 182.019C225.755 182.718 225.082 183.176 224.383 183.068C223.684 182.933 223.226 182.261 223.334 181.562C223.468 180.862 224.141 180.378 224.84 180.513Z" fill="#303030"/>
</g>
<g opacity="0.4">
<path opacity="0.3" d="M228.606 177.93C229.305 178.065 229.763 178.737 229.655 179.436C229.52 180.136 228.848 180.593 228.149 180.486C227.449 180.351 226.992 179.679 227.1 178.979C227.234 178.253 227.907 177.796 228.606 177.93Z" fill="#303030"/>
</g>
<g opacity="0.4">
<path opacity="0.3" d="M234.954 179.087C235.653 179.222 236.11 179.894 236.003 180.593C235.868 181.293 235.196 181.75 234.496 181.643C233.797 181.508 233.34 180.836 233.447 180.136C233.582 179.41 234.254 178.953 234.954 179.087Z" fill="#303030"/>
</g>
<g opacity="0.4">
<path opacity="0.3" d="M224.975 157.811C225.136 157.757 225.298 157.703 225.459 157.703C225.54 157.703 225.621 157.703 225.728 157.73C226.427 157.865 226.885 158.537 226.777 159.236C226.643 159.936 225.97 160.393 225.271 160.285C225.19 160.258 225.11 160.232 225.029 160.205C224.867 160.151 224.733 160.043 224.598 159.936C224.303 159.64 224.141 159.209 224.222 158.779C224.303 158.322 224.598 157.972 224.975 157.811Z" fill="#303030"/>
</g>
<g opacity="0.4">
<path opacity="0.3" d="M222.662 170.507C222.824 170.453 222.985 170.399 223.146 170.399C223.227 170.399 223.308 170.399 223.415 170.426C224.115 170.56 224.572 171.233 224.465 171.932C224.33 172.631 223.658 173.089 222.958 172.981C222.878 172.954 222.797 172.927 222.716 172.9C222.555 172.847 222.42 172.739 222.286 172.631C221.99 172.335 221.829 171.905 221.909 171.475C221.99 171.017 222.286 170.668 222.662 170.507Z" fill="#303030"/>
</g>
<g opacity="0.4">
<path opacity="0.3" d="M223.819 164.158C223.98 164.105 224.141 164.051 224.303 164.051C224.383 164.051 224.464 164.051 224.572 164.078C225.271 164.212 225.728 164.885 225.621 165.584C225.486 166.283 224.814 166.74 224.114 166.633C224.034 166.606 223.953 166.579 223.873 166.552C223.711 166.499 223.577 166.391 223.442 166.283C223.146 165.987 222.985 165.557 223.066 165.127C223.146 164.669 223.442 164.32 223.819 164.158Z" fill="#303030"/>
</g>
<g opacity="0.4">
<path opacity="0.3" d="M220.348 183.203C220.51 183.149 220.671 183.095 220.832 183.095C220.913 183.095 220.994 183.095 221.101 183.122C221.8 183.256 222.258 183.929 222.15 184.628C222.016 185.327 221.343 185.784 220.644 185.677C220.563 185.65 220.483 185.623 220.402 185.596C220.24 185.543 220.106 185.435 219.971 185.327C219.676 185.031 219.514 184.601 219.595 184.171C219.676 183.713 219.971 183.364 220.348 183.203Z" fill="#303030"/>
</g>
<g opacity="0.4">
<path opacity="0.3" d="M221.504 176.855C221.665 176.801 221.827 176.747 221.988 176.747C222.069 176.747 222.15 176.747 222.257 176.774C222.957 176.908 223.414 177.581 223.306 178.28C223.172 178.979 222.499 179.437 221.8 179.329C221.719 179.302 221.639 179.275 221.558 179.249C221.397 179.195 221.262 179.087 221.128 178.979C220.832 178.683 220.671 178.253 220.751 177.823C220.832 177.366 221.128 177.016 221.504 176.855Z" fill="#303030"/>
</g>
<g opacity="0.4">
<path opacity="0.3" d="M229.764 188.501C230.463 188.636 230.921 189.308 230.813 190.007C230.678 190.707 230.006 191.164 229.307 191.057C228.607 190.922 228.15 190.25 228.258 189.55C228.392 188.824 229.065 188.367 229.764 188.501Z" fill="#303030"/>
</g>
<g opacity="0.4">
<path opacity="0.3" d="M223.415 187.345C224.114 187.479 224.571 188.151 224.464 188.851C224.329 189.55 223.657 190.008 222.957 189.9C222.258 189.765 221.801 189.093 221.908 188.394C222.043 187.667 222.715 187.21 223.415 187.345Z" fill="#303030"/>
</g>
<g opacity="0.4">
<path opacity="0.3" d="M224.84 197.432C225.539 197.566 225.997 198.239 225.889 198.938C225.755 199.637 225.082 200.094 224.383 199.987C223.684 199.852 223.226 199.18 223.334 198.48C223.468 197.781 224.141 197.324 224.84 197.432Z" fill="#303030"/>
</g>
<g opacity="0.4">
<path opacity="0.3" d="M231.215 198.588C231.914 198.723 232.372 199.395 232.264 200.094C232.13 200.794 231.457 201.251 230.758 201.143C230.059 201.009 229.601 200.336 229.709 199.637C229.843 198.938 230.516 198.48 231.215 198.588Z" fill="#303030"/>
</g>
<g opacity="0.4">
<path opacity="0.3" d="M227.449 201.197C228.149 201.332 228.606 202.004 228.499 202.703C228.364 203.403 227.692 203.86 226.992 203.753C226.293 203.618 225.836 202.946 225.943 202.246C226.078 201.52 226.75 201.063 227.449 201.197Z" fill="#303030"/>
</g>
<g opacity="0.4">
<path opacity="0.3" d="M221.102 200.04C221.801 200.175 222.259 200.847 222.151 201.546C222.017 202.246 221.344 202.703 220.645 202.596C219.945 202.461 219.488 201.789 219.596 201.089C219.73 200.39 220.403 199.906 221.102 200.04Z" fill="#303030"/>
</g>
<g opacity="0.4">
<path opacity="0.3" d="M228.606 194.849C229.305 194.984 229.763 195.656 229.655 196.356C229.52 197.055 228.848 197.512 228.149 197.405C227.449 197.27 226.992 196.598 227.1 195.898C227.234 195.172 227.907 194.715 228.606 194.849Z" fill="#303030"/>
</g>
<g opacity="0.4">
<path opacity="0.3" d="M222.258 193.692C222.958 193.827 223.415 194.499 223.307 195.199C223.173 195.898 222.5 196.355 221.801 196.248C221.102 196.113 220.644 195.441 220.752 194.742C220.887 194.015 221.559 193.558 222.258 193.692Z" fill="#303030"/>
</g>
<g opacity="0.4">
<path opacity="0.3" d="M225.996 191.084C226.696 191.218 227.153 191.891 227.046 192.59C226.911 193.289 226.239 193.746 225.539 193.639C224.84 193.505 224.383 192.832 224.49 192.133C224.625 191.433 225.297 190.949 225.996 191.084Z" fill="#303030"/>
</g>
<g opacity="0.4">
<path opacity="0.3" d="M232.371 192.24C233.071 192.374 233.528 193.047 233.421 193.746C233.286 194.445 232.614 194.903 231.914 194.795C231.215 194.661 230.758 193.988 230.865 193.289C230.973 192.59 231.645 192.105 232.371 192.24Z" fill="#303030"/>
</g>
<g opacity="0.4">
<path opacity="0.3" d="M222.553 210.154C223.253 210.288 223.71 210.961 223.602 211.66C223.468 212.36 222.795 212.817 222.096 212.709C221.397 212.575 220.939 211.902 221.047 211.203C221.182 210.477 221.854 210.02 222.553 210.154Z" fill="#303030"/>
</g>
<g opacity="0.4">
<path opacity="0.3" d="M228.901 211.311C229.6 211.445 230.057 212.118 229.95 212.817C229.815 213.516 229.143 213.974 228.443 213.866C227.744 213.731 227.287 213.059 227.395 212.36C227.529 211.634 228.202 211.176 228.901 211.311Z" fill="#303030"/>
</g>
<g opacity="0.4">
<path opacity="0.3" d="M226.294 207.545C226.993 207.68 227.45 208.352 227.342 209.051C227.208 209.751 226.535 210.208 225.836 210.1C225.137 209.966 224.68 209.294 224.787 208.594C224.921 207.895 225.594 207.411 226.294 207.545Z" fill="#303030"/>
</g>
<g opacity="0.4">
<path opacity="0.3" d="M219.946 206.388C220.645 206.523 221.102 207.195 220.995 207.894C220.861 208.594 220.188 209.051 219.488 208.943C218.789 208.809 218.332 208.137 218.44 207.437C218.574 206.738 219.247 206.254 219.946 206.388Z" fill="#303030"/>
</g>
<g opacity="0.4">
<path opacity="0.3" d="M223.711 203.779C224.411 203.913 224.868 204.586 224.76 205.285C224.626 205.985 223.953 206.442 223.254 206.334C222.555 206.2 222.097 205.527 222.205 204.828C222.313 204.129 222.985 203.671 223.711 203.779Z" fill="#303030"/>
</g>
<g opacity="0.4">
<path opacity="0.3" d="M230.059 204.936C230.758 205.071 231.216 205.743 231.108 206.442C230.973 207.142 230.301 207.599 229.602 207.491C228.902 207.357 228.445 206.684 228.553 205.985C228.687 205.286 229.36 204.828 230.059 204.936Z" fill="#303030"/>
</g>
<g opacity="0.4">
<path opacity="0.3" d="M217.739 196.382C217.9 196.329 218.061 196.275 218.223 196.275C218.303 196.275 218.384 196.275 218.492 196.302C219.191 196.436 219.648 197.109 219.541 197.808C219.406 198.507 218.734 198.965 218.034 198.857C217.954 198.83 217.873 198.803 217.793 198.776C217.631 198.722 217.497 198.615 217.362 198.507C217.066 198.212 216.905 197.781 216.986 197.351C217.066 196.893 217.362 196.544 217.739 196.382Z" fill="#303030"/>
</g>
<g opacity="0.4">
<path opacity="0.3" d="M218.897 190.035C219.058 189.981 219.22 189.927 219.381 189.927C219.461 189.927 219.542 189.927 219.65 189.954C220.349 190.088 220.807 190.761 220.699 191.46C220.564 192.159 219.892 192.617 219.193 192.509C219.112 192.482 219.031 192.455 218.951 192.429C218.789 192.375 218.655 192.267 218.52 192.159C218.224 191.864 218.063 191.433 218.144 191.003C218.224 190.546 218.52 190.196 218.897 190.035Z" fill="#303030"/>
</g>
<g opacity="0.4">
<path opacity="0.3" d="M216.61 202.73C216.771 202.676 216.933 202.623 217.094 202.623C217.175 202.623 217.255 202.623 217.363 202.65C218.062 202.784 218.519 203.456 218.412 204.156C218.278 204.855 217.605 205.313 216.905 205.205C216.825 205.178 216.744 205.151 216.664 205.124C216.502 205.07 216.368 204.963 216.233 204.855C215.937 204.559 215.776 204.129 215.857 203.699C215.937 203.241 216.206 202.892 216.61 202.73Z" fill="#303030"/>
</g>
<g opacity="0.4">
<path opacity="0.3" d="M233.098 40.8857C233.26 40.8317 233.421 40.7781 233.582 40.7781C233.663 40.7781 233.744 40.7781 233.851 40.8051C234.55 40.9393 235.008 41.6121 234.9 42.3111C234.766 43.0105 234.093 43.468 233.394 43.3603C233.313 43.3333 233.233 43.3063 233.152 43.2797C232.99 43.2257 232.856 43.1181 232.721 43.0105C232.426 42.7146 232.264 42.2845 232.345 41.854C232.426 41.3968 232.721 41.047 233.098 40.8857Z" fill="#303030"/>
</g>
<g opacity="0.4">
<path opacity="0.3" d="M228.661 33.2733C229.36 33.4078 229.817 34.0802 229.71 34.7796C229.575 35.4789 228.903 35.9362 228.204 35.8286C227.504 35.6941 227.047 35.0217 227.154 34.3223C227.289 33.623 227.961 33.1657 228.661 33.2733Z" fill="#303030"/>
</g>
<g opacity="0.4">
<path opacity="0.3" d="M234.254 34.5378C234.416 34.4841 234.577 34.4302 234.738 34.4302C234.819 34.4302 234.9 34.4302 235.008 34.4571C235.707 34.5916 236.164 35.2641 236.056 35.9634C235.922 36.6628 235.249 37.12 234.55 37.0125C234.469 36.9855 234.389 36.9586 234.308 36.9317C234.147 36.8779 234.012 36.7703 233.878 36.6628C233.582 36.3669 233.421 35.9365 233.501 35.5062C233.582 35.0489 233.878 34.6992 234.254 34.5378Z" fill="#303030"/>
</g>
<g opacity="0.4">
<path opacity="0.3" d="M231.27 37.0389C231.969 37.1734 232.427 37.8459 232.319 38.5452C232.185 39.2445 231.512 39.7018 230.813 39.5942C230.114 39.4597 229.656 38.7873 229.764 38.0879C229.898 37.3886 230.571 36.9044 231.27 37.0389Z" fill="#303030"/>
</g>
<g opacity="0.4">
<path opacity="0.3" d="M224.895 35.8826C225.594 36.0172 226.052 36.6896 225.944 37.3889C225.81 38.0883 225.137 38.5456 224.438 38.438C223.739 38.3035 223.281 37.631 223.389 36.9317C223.523 36.2323 224.196 35.7482 224.895 35.8826Z" fill="#303030"/>
</g>
<g opacity="0.4">
<path opacity="0.3" d="M232.426 30.691C233.126 30.8255 233.583 31.498 233.475 32.1973C233.341 32.8966 232.669 33.3539 231.969 33.2463C231.27 33.1118 230.812 32.4394 230.92 31.74C231.028 31.0138 231.7 30.5565 232.426 30.691Z" fill="#303030"/>
</g>
<g opacity="0.4">
<path opacity="0.3" d="M226.051 29.5347C226.751 29.6691 227.208 30.3416 227.1 31.0409C226.966 31.7403 226.294 32.1975 225.594 32.0899C224.895 31.9555 224.437 31.283 224.545 30.5837C224.68 29.8574 225.352 29.4001 226.051 29.5347Z" fill="#303030"/>
</g>
<g opacity="0.4">
<path opacity="0.3" d="M229.817 26.9253C230.516 27.0598 230.973 27.7323 230.866 28.4316C230.732 29.131 230.059 29.5882 229.36 29.4806C228.66 29.3461 228.203 28.6737 228.311 27.9744C228.445 27.275 229.118 26.8177 229.817 26.9253Z" fill="#303030"/>
</g>
<g opacity="0.4">
<path opacity="0.3" d="M235.412 28.1625C235.574 28.1087 235.735 28.0549 235.896 28.0549C235.977 28.0549 236.058 28.0549 236.165 28.0818C236.865 28.2163 237.322 28.8888 237.215 29.5881C237.08 30.2875 236.408 30.7447 235.708 30.6371C235.628 30.6103 235.547 30.5833 235.466 30.5564C235.305 30.5026 235.17 30.395 235.036 30.2875C234.74 29.9916 234.579 29.5612 234.659 29.1308C234.74 28.7005 235.036 28.3508 235.412 28.1625Z" fill="#303030"/>
</g>
<g opacity="0.4">
<path opacity="0.3" d="M227.504 39.6484C228.204 39.7828 228.661 40.4555 228.553 41.1545C228.419 41.8538 227.747 42.3113 227.047 42.2037C226.348 42.0691 225.89 41.3967 225.998 40.6973C226.133 39.9711 226.805 39.5139 227.504 39.6484Z" fill="#303030"/>
</g>
<g opacity="0.4">
<path opacity="0.3" d="M220.403 38.5726C220.564 38.5188 220.725 38.465 220.887 38.465C220.968 38.465 221.048 38.465 221.156 38.4919C221.855 38.6264 222.312 39.2988 222.205 39.9982C222.071 40.6974 221.398 41.1549 220.699 41.0473C220.618 41.0203 220.537 40.9933 220.457 40.9667C220.295 40.9127 220.161 40.805 220.026 40.6974C219.731 40.4017 219.569 39.9713 219.65 39.5409C219.731 39.0837 220.026 38.734 220.403 38.5726Z" fill="#303030"/>
</g>
<g opacity="0.4">
<path opacity="0.3" d="M215.963 30.9867C216.663 31.1212 217.12 31.7936 217.012 32.493C216.878 33.1923 216.205 33.6496 215.506 33.542C214.807 33.4075 214.349 32.735 214.457 32.0357C214.591 31.3095 215.264 30.8522 215.963 30.9867Z" fill="#303030"/>
</g>
<g opacity="0.4">
<path opacity="0.3" d="M221.559 32.2241C221.72 32.1703 221.882 32.1165 222.043 32.1165C222.124 32.1165 222.205 32.1165 222.312 32.1434C223.012 32.2779 223.469 32.9503 223.361 33.6497C223.227 34.349 222.554 34.8063 221.855 34.6987C221.774 34.6718 221.693 34.6449 221.613 34.618C221.452 34.5642 221.317 34.4566 221.182 34.349C220.886 34.0532 220.725 33.6228 220.806 33.1924C220.886 32.7352 221.182 32.3855 221.559 32.2241Z" fill="#303030"/>
</g>
<g opacity="0.4">
<path opacity="0.3" d="M218.545 34.7259C219.244 34.8604 219.702 35.5329 219.594 36.2322C219.46 36.9315 218.787 37.3888 218.088 37.2812C217.389 37.1468 216.931 36.4743 217.039 35.7749C217.173 35.0756 217.846 34.5914 218.545 34.7259Z" fill="#303030"/>
</g>
<g opacity="0.4">
<path opacity="0.3" d="M212.198 33.5691C212.897 33.7035 213.354 34.376 213.247 35.0753C213.112 35.7747 212.44 36.2319 211.74 36.1243C211.041 35.9899 210.584 35.3174 210.691 34.6181C210.826 33.9187 211.498 33.4345 212.198 33.5691Z" fill="#303030"/>
</g>
<path d="M134 24H72V84H134V24Z" fill="#FFC998"/>
<path d="M123 73H64V15H123V73ZM65.4461 71.5784H121.554V16.4216H65.4461V71.5784Z" fill="#3913B8"/>
<path d="M130.269 35H56.7309C56.2924 35 56 34.8 56 34.5C56 34.2001 56.2924 34 56.7309 34H130.269C130.708 34 131 34.2001 131 34.5C131 34.8 130.708 35 130.269 35Z" fill="#3913B8"/>
<path d="M130.269 54H56.7309C56.2924 54 56 53.8 56 53.5C56 53.2 56.2924 53 56.7309 53H130.269C130.708 53 131 53.2 131 53.5C131 53.8 130.708 54 130.269 54Z" fill="#3913B8"/>
<path d="M103 80C102.4 80 102 79.7192 102 79.2982V8.70175C102 8.28071 102.4 8 103 8C103.6 8 104 8.28071 104 8.70175V79.2982C104 79.5788 103.4 80 103 80Z" fill="#3913B8"/>
<path d="M83.5 80C83.2001 80 83 79.7192 83 79.2982V8.70175C83 8.28071 83.2001 8 83.5 8C83.8 8 84 8.28071 84 8.70175V79.2982C84 79.5788 83.8 80 83.5 80Z" fill="#3913B8"/>
<path d="M96.3898 48C96.2542 48 95.983 47.8625 95.8474 47.7251L89.2034 40.1679C88.9322 39.8932 88.9322 39.481 89.2034 39.2062C89.4745 38.9313 89.8814 38.9313 90.1526 39.2062L96.7966 46.7633C97.0678 47.0381 97.0678 47.4503 96.7966 47.7251C96.7966 47.9999 96.5255 48 96.3898 48Z" fill="#3913B8"/>
<path d="M88.8461 48C88.6923 48 88.3846 47.8656 88.2308 47.7311C87.9231 47.4622 87.9231 47.0589 88.2308 46.7899L96.6924 40.2018C97.0001 39.9327 97.4616 39.9327 97.7692 40.2018C98.0769 40.4706 98.0769 40.874 97.7692 41.1429L89.3077 47.7311C89.3077 48 89.0001 48 88.8461 48Z" fill="#3913B8"/>
<path d="M77.3898 30C77.2542 30 76.983 29.8626 76.8474 29.7252L70.2034 22.1679C69.9322 21.8932 69.9322 21.481 70.2034 21.2062C70.4745 20.9313 70.8813 20.9313 71.1526 21.2062L77.7966 28.7633C78.0678 29.0381 78.0678 29.4503 77.7966 29.7252C77.661 29.8626 77.5253 30 77.3898 30Z" fill="#3913B8"/>
<path d="M69.8462 29C69.6924 29 69.3847 28.8656 69.2309 28.7311C68.923 28.4622 68.923 28.0589 69.2309 27.79L77.6923 21.2018C77.9999 20.9327 78.4614 20.9327 78.7692 21.2018C79.0769 21.4706 79.0769 21.874 78.7692 22.1429L70.3077 28.7311C70.1539 28.8656 70 29 69.8462 29Z" fill="#3913B8"/>
<path d="M116.314 30C116.161 30 115.856 29.8626 115.703 29.7252L108.229 22.1679C107.924 21.8932 107.924 21.481 108.229 21.2062C108.534 20.9313 108.992 20.9313 109.297 21.2062L116.771 28.7633C117.076 29.0381 117.076 29.4503 116.771 29.7252C116.619 29.8626 116.466 30 116.314 30Z" fill="#3913B8"/>
<path d="M108.762 29C108.623 29 108.346 28.8656 108.208 28.7311C107.931 28.4622 107.931 28.0589 108.208 27.79L115.823 21.2018C116.1 20.9327 116.515 20.9327 116.792 21.2018C117.069 21.4706 117.069 21.874 116.792 22.1429L109.177 28.7311C109.039 28.8656 108.9 29 108.762 29Z" fill="#3913B8"/>
<path d="M96.3898 30C96.2542 30 95.983 29.8626 95.8474 29.7252L89.2034 22.1679C88.9322 21.8932 88.9322 21.481 89.2034 21.2062C89.4745 20.9313 89.8814 20.9313 90.1526 21.2062L96.7966 28.7633C97.0678 29.0381 97.0678 29.4503 96.7966 29.7252C96.7966 29.8626 96.5255 30 96.3898 30Z" fill="#3913B8"/>
<path d="M88.8461 29C88.6923 29 88.3846 28.8656 88.2308 28.7311C87.9231 28.4622 87.9231 28.0589 88.2308 27.79L96.6924 21.2018C97.0001 20.9327 97.4616 20.9327 97.7692 21.2018C98.0769 21.4706 98.0769 21.874 97.7692 22.1429L89.3077 28.7311C89.3077 28.8656 89.0001 29 88.8461 29Z" fill="#3913B8"/>
<path d="M116.314 67C116.161 67 115.856 66.8626 115.703 66.7252L108.229 59.168C107.924 58.8932 107.924 58.4809 108.229 58.2061C108.534 57.9313 108.992 57.9313 109.297 58.2061L116.771 65.7634C117.076 66.0382 117.076 66.4504 116.771 66.7252C116.619 66.8626 116.466 67 116.314 67Z" fill="#B5CDFB"/>
<path d="M108.762 67C108.623 67 108.346 66.8488 108.208 66.6974C107.931 66.3949 107.931 65.9411 108.208 65.6386L115.823 58.2269C116.1 57.9244 116.515 57.9244 116.792 58.2269C117.069 58.5294 117.069 58.9831 116.792 59.2858L109.177 66.6974C109.039 66.8488 108.9 67 108.762 67Z" fill="#B5CDFB"/>
<g opacity="0.4">
<path opacity="0.3" d="M219.703 28.3779C220.403 28.5125 220.86 29.1849 220.753 29.8842C220.618 30.5836 219.946 31.0409 219.246 30.9333C218.547 30.7988 218.09 30.1263 218.197 29.427C218.332 28.7276 219.004 28.2435 219.703 28.3779Z" fill="#303030"/>
</g>
<g opacity="0.4">
<path opacity="0.3" d="M213.356 27.2211C214.055 27.3556 214.513 28.028 214.405 28.7274C214.27 29.4267 213.598 29.884 212.899 29.7764C212.199 29.6419 211.742 28.9695 211.85 28.2701C211.984 27.5707 212.657 27.0866 213.356 27.2211Z" fill="#303030"/>
</g>
<g opacity="0.4">
<path opacity="0.3" d="M209.616 29.8305C210.315 29.9651 210.772 30.6375 210.665 31.3368C210.53 32.0362 209.858 32.4935 209.158 32.3859C208.459 32.2514 208.002 31.5789 208.109 30.8796C208.244 30.1533 208.916 29.6961 209.616 29.8305Z" fill="#303030"/>
</g>
<g opacity="0.4">
<path opacity="0.3" d="M217.122 24.6123C217.821 24.7468 218.278 25.4193 218.171 26.1186C218.036 26.818 217.364 27.2753 216.664 27.1676C215.965 27.0332 215.508 26.3607 215.615 25.6614C215.75 24.962 216.422 24.5048 217.122 24.6123Z" fill="#303030"/>
</g>
<g opacity="0.4">
<path opacity="0.3" d="M222.715 25.8764C222.877 25.8226 223.038 25.7688 223.2 25.7688C223.28 25.7688 223.361 25.7688 223.468 25.7957C224.168 25.9302 224.625 26.6026 224.517 27.302C224.383 28.0013 223.711 28.4586 223.011 28.351C222.93 28.3241 222.85 28.2972 222.769 28.2703C222.608 28.2165 222.473 28.1089 222.339 28.0013C222.043 27.7054 221.881 27.2751 221.962 26.8447C222.043 26.3875 222.339 26.0378 222.715 25.8764Z" fill="#303030"/>
</g>
<g opacity="0.4">
<path opacity="0.3" d="M214.807 37.3352C215.506 37.4698 215.964 38.1422 215.856 38.8415C215.721 39.5409 215.049 39.9982 214.35 39.8906C213.65 39.7561 213.193 39.0836 213.301 38.3843C213.435 37.658 214.108 37.2008 214.807 37.3352Z" fill="#303030"/>
</g>
<g opacity="0.4">
<path opacity="0.3" d="M205.85 32.4128C206.55 32.5473 207.007 33.2197 206.899 33.9191C206.765 34.6184 206.092 35.0757 205.393 34.9681C204.694 34.8336 204.236 34.1612 204.344 33.4618C204.478 32.7625 205.151 32.2783 205.85 32.4128Z" fill="#303030"/>
</g>
<g opacity="0.4">
<path opacity="0.3" d="M207.008 26.065C207.708 26.1995 208.165 26.8719 208.057 27.5713C207.923 28.2706 207.25 28.7279 206.551 28.6203C205.852 28.4858 205.394 27.8134 205.502 27.114C205.637 26.4146 206.309 25.9305 207.008 26.065Z" fill="#303030"/>
</g>
<g opacity="0.4">
<path opacity="0.3" d="M210.02 23.5632C210.181 23.5093 210.343 23.4556 210.504 23.4556C210.585 23.4556 210.666 23.4556 210.773 23.4825C211.472 23.6169 211.93 24.2894 211.822 24.9888C211.687 25.6881 211.015 26.1454 210.316 26.0377C210.235 26.0109 210.154 25.984 210.074 25.9571C209.912 25.9033 209.778 25.7957 209.643 25.6881C209.347 25.3922 209.186 24.9618 209.267 24.5315C209.347 24.0742 209.643 23.7246 210.02 23.5632Z" fill="#303030"/>
</g>
<g opacity="0.4">
<path opacity="0.3" d="M207.707 36.2589C207.869 36.2051 208.03 36.1513 208.191 36.1513C208.272 36.1513 208.353 36.1513 208.461 36.1782C209.16 36.3127 209.617 36.9851 209.51 37.6845C209.375 38.3838 208.703 38.8411 208.003 38.7335C207.923 38.7066 207.842 38.6797 207.761 38.6528C207.6 38.599 207.465 38.4914 207.331 38.3838C207.035 38.088 206.874 37.6576 206.954 37.2272C207.035 36.7699 207.331 36.4203 207.707 36.2589Z" fill="#303030"/>
</g>
<path d="M193.458 103.17L74.5227 179.713L7.07422 93.0701L187.927 53.304L193.458 103.17Z" fill="#CDDBFF"/>
<path d="M141.887 73.0558C147.912 73.7282 152.915 76.9828 157.138 79.7533C160.312 81.8244 163.566 83.9492 165.799 83.8955C168.085 83.8415 171.259 81.3939 174.352 79.0269C174.944 78.5698 175.536 78.1123 176.128 77.6822C187.667 68.9942 196.328 70.2313 201.573 72.7599C207.813 75.7993 210.772 81.5822 212.924 85.8054C213.139 86.2085 213.328 86.612 213.542 87.0155C214.457 88.7908 215.264 89.786 215.775 90.2702C216.179 89.9477 216.797 89.3559 217.523 88.3607C217.981 87.7419 218.465 87.0155 218.949 86.2895C220.751 83.6267 222.984 80.291 226.507 77.7358C233.205 72.8942 242.754 72.6253 249.72 77.0904C255.692 80.9098 259.323 87.7689 259.189 94.9775C259.162 96.134 259.054 97.3175 258.812 98.4474C258.355 100.76 257.036 102.751 255.073 104.042C253.109 105.36 250.769 105.817 248.456 105.36C244.26 104.526 241.274 100.841 241.355 96.5645C241.355 96.0534 241.409 95.5153 241.516 95.0042C241.543 94.8969 241.543 94.7623 241.543 94.6277C241.57 93.5788 240.952 92.3683 240.172 91.8572C239.257 91.2654 237.643 91.3194 236.782 91.9648C235.787 92.6912 234.684 94.3318 233.501 96.0804C232.936 96.941 232.317 97.8287 231.672 98.7433C228.444 103.127 222.984 108.319 215.21 108.104C210.342 107.969 203.402 105.629 197.915 95.1388C197.7 94.7083 197.458 94.2782 197.242 93.8477C196.247 91.9112 194.768 89.033 193.826 88.5755C193.235 88.2797 190.733 88.6832 186.671 91.7229C186.134 92.1264 185.596 92.5295 185.058 92.96C180.216 96.6722 174.218 101.299 166.121 101.46C158.483 101.621 152.404 97.6404 147.508 94.4664C146.244 93.6324 145.007 92.8254 143.85 92.153" stroke="#3D3D3D" stroke-width="1.07592" stroke-miterlimit="10" stroke-linejoin="round"/>
<path d="M154.744 83.411C158.644 85.9396 162.329 88.3336 165.88 88.2796C169.618 88.199 173.223 85.4285 177.015 82.5234C177.607 82.0662 178.172 81.6357 178.764 81.2056C188.528 73.8624 195.494 74.723 199.636 76.7405C204.559 79.1345 207.007 83.9491 208.997 87.8225C209.212 88.226 209.427 88.6561 209.642 89.0596C211.579 92.7447 213.731 94.8965 215.587 94.9505C217.174 95.0041 219.164 93.5517 221.047 90.9695C221.558 90.2701 222.069 89.5437 222.58 88.7367C224.275 86.2355 226.158 83.411 229.063 81.3132C234.335 77.4935 241.839 77.3052 247.327 80.8021C252.814 84.3256 255.745 91.2114 254.481 97.6134C253.997 100.007 251.684 101.54 249.317 101.083C246.923 100.599 245.39 98.2857 245.847 95.9187C246.412 93.0942 244.986 89.786 242.566 88.226C240.145 86.6656 236.54 86.7732 234.2 88.4679C232.559 89.6514 231.241 91.6149 229.843 93.686C229.278 94.52 228.713 95.3536 228.094 96.1876C224.383 101.271 219.944 103.88 215.291 103.773C211.606 103.665 206.253 101.756 201.788 93.1752C201.573 92.7447 201.331 92.3142 201.116 91.8841C199.502 88.7637 197.996 85.805 195.736 84.7021C192.078 82.9269 186.806 86.1815 184.009 88.3066C183.444 88.7101 182.906 89.1402 182.341 89.5707C177.795 93.0676 172.658 97.0216 166.014 97.1559C159.747 97.2905 154.502 93.8742 149.902 90.8619" stroke="#3D3D3D" stroke-width="1.07592" stroke-miterlimit="10" stroke-linejoin="round"/>
<path d="M250.178 96.7261C251.092 92.0997 248.94 87.0159 244.959 84.4876C240.979 81.959 235.464 82.0936 231.645 84.8641C228.606 87.0695 226.803 90.5394 224.598 93.5521C222.392 96.5645 219.218 99.4426 215.452 99.335C210.987 99.2274 207.787 95.0585 205.715 91.1045C203.644 87.1505 201.708 82.6584 197.673 80.6949C192.374 78.1126 186.08 81.179 181.373 84.7295C176.665 88.28 171.851 92.5839 165.933 92.7181C155.497 92.9334 147.508 79.8609 137.287 82.013" stroke="#3D3D3D" stroke-width="1.07592" stroke-miterlimit="10" stroke-linejoin="round"/>
<path d="M80.9099 204.075H28.459V58.3153C29.5079 57.2664 30.1266 56.6476 31.1759 55.5988H78.1934C79.2422 56.6476 79.861 57.2664 80.9099 58.3153V204.075Z" fill="#5E64FF"/>
<path d="M56.1905 91.373H53.1777V118.809H56.1905V91.373Z" stroke="#3D3D3D" stroke-width="0.53796" stroke-miterlimit="10" stroke-linejoin="bevel"/>
<path d="M180.726 128.519L171.312 117.195L158.374 112.677L144.199 117.222C144.199 117.222 144.387 116.631 144.656 116.361L162.275 99.5506C163.431 101.164 164.857 102.751 166.443 103.854C168.864 105.522 173.571 105.172 177.311 104.499L180.726 128.519Z" fill="#5E64FF"/>
<path d="M123.515 184.144L126.554 174.273L140.918 169.377L153.99 173.412L163.082 185.57L160.015 195.441L145.733 200.068L132.687 196.033L123.515 184.144Z" fill="#5E64FF"/>
<path d="M154.151 173.492L140.756 169.35L127.227 173.949L144.63 117.652L158.509 113.16L171.231 117.087L180.135 128.626L162.705 184.951L154.151 173.492Z" fill="#ADB5FF"/>
<path d="M158.509 113.698L170.909 117.545L179.543 128.734L162.517 183.767L154.689 173.304L154.474 173.035L154.151 172.928L141.079 168.893L140.756 168.785L140.433 168.893L128.06 173.116L145.087 118.083L158.509 113.698ZM158.509 112.595L144.226 117.222L126.393 174.811L140.756 169.915L153.829 173.95L162.92 186.107L180.753 128.519L171.581 116.63L158.509 112.595Z" fill="#3D3D3D"/>
<path d="M155.631 123.032L168.031 126.879L176.666 138.068L159.639 193.101L151.812 182.638L151.597 182.369L151.274 182.261L138.201 178.227L137.879 178.119L137.556 178.227L125.183 182.45L142.209 127.417L155.631 123.032ZM155.604 121.903L141.322 126.529L123.488 184.117L137.852 179.222L150.924 183.257L160.016 195.415L177.849 137.826L168.677 125.937L155.604 121.903Z" fill="#3D3D3D"/>
<path d="M150.951 183.283L168.516 126.609" stroke="#3D3D3D" stroke-width="1.07592" stroke-miterlimit="10"/>
<path d="M171.769 104.499C169.536 104.499 167.842 104.123 166.766 103.397C165.502 102.536 164.237 101.272 163 99.6039L173.437 89.6518C173.598 89.4905 173.786 89.4635 173.921 89.4635C174.244 89.4635 174.566 89.6788 174.647 90.0823L176.745 104.069C174.889 104.365 173.221 104.499 171.769 104.499Z" fill="#ADB5FF"/>
<path d="M173.922 90.0012C173.922 90.0012 174.083 90.0012 174.11 90.1625L176.128 103.611C174.514 103.853 173.062 103.988 171.77 103.988C169.645 103.988 168.058 103.638 167.09 102.966C165.987 102.213 164.858 101.083 163.728 99.6845L173.815 90.0549C173.842 90.0012 173.868 90.0012 173.922 90.0012ZM173.922 88.9254C173.626 88.9254 173.303 89.0326 173.062 89.2749L162.275 99.5499C163.432 101.164 164.858 102.751 166.445 103.853C167.736 104.741 169.645 105.064 171.743 105.064C173.599 105.064 175.563 104.822 177.311 104.499L175.159 90.0012C175.079 89.3285 174.514 88.9254 173.922 88.9254Z" fill="#3D3D3D"/>
<path d="M137.609 179.141L155.201 122.466" stroke="#3D3D3D" stroke-width="1.07592" stroke-miterlimit="10"/>
<path d="M64.1244 73.5666C65.4155 75.0999 67.433 75.7723 69.3965 75.3418C76.6051 73.7282 84.5398 74.7234 91.13 78.0317C92.4211 78.6774 93.8735 78.7847 95.2453 78.3276C96.617 77.8704 97.7199 76.9288 98.3656 75.6377C99.3339 73.7012 99.065 71.3878 97.6663 69.7472C97.2088 69.1824 96.617 68.7519 95.9716 68.4024C87.0684 63.9373 76.7934 62.6462 67.0831 64.8249C64.1784 65.4703 62.3491 68.3484 62.9949 71.2536C63.1831 72.1142 63.5596 72.9212 64.1244 73.5666Z" stroke="#58FFFF" stroke-width="0.806936" stroke-miterlimit="10" stroke-linejoin="round"/>
<path d="M66.1686 71.8445C66.7874 72.5979 67.8093 72.9744 68.8045 72.7321C76.6049 70.9839 85.1853 72.0598 92.3403 75.6373C93.6584 76.3096 95.272 75.7719 95.9448 74.4538C96.6171 73.1356 96.079 71.522 94.7613 70.8493C86.3958 66.6534 76.7665 65.4429 67.648 67.487C66.1956 67.8099 65.281 69.2356 65.6039 70.688C65.7115 71.1185 65.8998 71.522 66.1686 71.8445Z" stroke="#58FFFF" stroke-width="0.806936" stroke-miterlimit="10" stroke-linejoin="round"/>
<path d="M93.5512 73.2437C85.8045 69.3433 76.686 68.2138 68.2402 70.0967" stroke="#58FFFF" stroke-width="0.806936" stroke-miterlimit="10" stroke-linejoin="round"/>
<path d="M46.1836 124.35C47.2861 128.035 50.5677 130.617 54.2798 130.752C58.3681 130.913 62.1608 128.546 63.1561 124.35C57.5075 124.538 51.8318 124.188 46.1836 124.35Z" fill="white"/>
<path d="M33.542 170.453V199.906" stroke="#3D3D3D" stroke-width="1.07592" stroke-miterlimit="10"/>
<path d="M38.8135 170.453V199.906" stroke="#3D3D3D" stroke-width="1.07592" stroke-miterlimit="10"/>
<path d="M44.1123 170.453V199.906" stroke="#3D3D3D" stroke-width="1.07592" stroke-miterlimit="10"/>
<path d="M49.3848 170.453V199.906" stroke="#3D3D3D" stroke-width="1.07592" stroke-miterlimit="10"/>
<path d="M54.6836 170.453V199.906" stroke="#3D3D3D" stroke-width="1.07592" stroke-miterlimit="10"/>
<path d="M59.9551 170.453V199.906" stroke="#3D3D3D" stroke-width="1.07592" stroke-miterlimit="10"/>
<path d="M65.2275 170.453V199.906" stroke="#3D3D3D" stroke-width="1.07592" stroke-miterlimit="10"/>
<path d="M70.5264 170.453V199.906" stroke="#3D3D3D" stroke-width="1.07592" stroke-miterlimit="10"/>
<path d="M75.7979 170.453V199.906" stroke="#3D3D3D" stroke-width="1.07592" stroke-miterlimit="10"/>
<path d="M85.9661 153.91C85.8318 153.103 84.8366 152.484 84.3525 151.812C83.7067 150.951 83.3838 149.849 83.4378 148.746C83.5185 147.293 84.2715 145.949 84.3525 144.496C84.3525 144.335 84.3524 144.146 84.2448 144.012C84.1642 143.904 84.0296 143.85 83.9219 143.823C81.7968 143.043 79.5108 143.474 77.2781 143.555C74.7765 143.635 72.3022 143.716 69.8006 143.796C64.8243 143.931 59.8214 144.066 54.8452 144.119C44.9737 144.281 35.1292 144.281 25.2577 144.146C24.1814 144.335 23.9932 145.41 24.0742 146.513C24.1548 147.616 24.6659 148.638 24.8808 149.714C25.0154 150.413 25.0424 151.14 25.0424 151.866C25.0424 152.888 25.0694 153.937 25.0694 154.959C25.9301 155.174 26.7637 155.497 27.5977 155.847V172.739H81.7702V157.272C82.0661 157.218 82.3619 157.138 82.6578 157.057C83.4648 156.842 84.2985 156.6 84.9442 156.089C85.6166 155.578 86.0737 154.744 85.9661 153.91Z" fill="#BAF3D2"/>
<path d="M51.6709 144.496C51.6709 144.496 72.1673 144.711 85.9658 143.07" stroke="white" stroke-width="0.806936" stroke-miterlimit="10" stroke-linejoin="round"/>
<path d="M73.6191 120.288C73.6191 121.015 74.1839 121.579 74.9103 121.579C75.6363 121.579 76.2014 121.015 76.2014 120.288C76.2014 119.562 75.6363 118.997 74.9103 118.997C74.1839 118.997 73.6191 119.589 73.6191 120.288Z" fill="#303030"/>
<path d="M76.8467 123.516C76.8467 124.242 77.4384 124.807 78.1378 124.807C78.8642 124.807 79.4289 124.242 79.4289 123.516C79.4289 122.79 78.8642 122.225 78.1378 122.225C77.4114 122.225 76.8467 122.817 76.8467 123.516Z" fill="#303030"/>
<path d="M70.3906 123.516C70.3906 124.242 70.9557 124.807 71.6817 124.807C72.4081 124.807 72.9729 124.242 72.9729 123.516C72.9729 122.79 72.4081 122.225 71.6817 122.225C70.9557 122.225 70.3906 122.817 70.3906 123.516Z" fill="#303030"/>
<path d="M86.5303 120.288C86.5303 121.015 87.0954 121.579 87.8214 121.579C88.5478 121.579 89.1125 121.015 89.1125 120.288C89.1125 119.562 88.5478 118.997 87.8214 118.997C87.0954 118.997 86.5303 119.589 86.5303 120.288Z" fill="#303030"/>
<path d="M83.3027 123.516C83.3027 124.242 83.8675 124.807 84.5939 124.807C85.3202 124.807 85.885 124.242 85.885 123.516C85.885 122.79 85.3202 122.225 84.5939 122.225C83.8675 122.225 83.3027 122.817 83.3027 123.516Z" fill="#303030"/>
<path d="M80.0742 120.288C80.0742 121.015 80.666 121.579 81.365 121.579C82.0914 121.579 82.6561 121.015 82.6561 120.288C82.6561 119.562 82.0914 118.997 81.365 118.997C80.639 118.997 80.0742 119.589 80.0742 120.288Z" fill="#303030"/>
<path d="M35.7206 120.288C35.7206 121.015 35.1558 121.579 34.4294 121.579C33.7034 121.579 33.1387 121.015 33.1387 120.288C33.1387 119.562 33.7034 118.997 34.4294 118.997C35.1558 118.997 35.7206 119.589 35.7206 120.288Z" fill="#303030"/>
<path d="M32.4924 123.516C32.4924 124.242 31.9007 124.807 31.2013 124.807C30.4749 124.807 29.9102 124.242 29.9102 123.516C29.9102 122.79 30.4749 122.225 31.2013 122.225C31.9277 122.225 32.4924 122.816 32.4924 123.516Z" fill="#303030"/>
<path d="M38.9475 123.516C38.9475 124.242 38.3827 124.807 37.6564 124.807C36.93 124.807 36.3652 124.242 36.3652 123.516C36.3652 122.79 36.93 122.225 37.6564 122.225C38.3827 122.225 38.9475 122.816 38.9475 123.516Z" fill="#303030"/>
<path d="M22.8089 120.288C22.8089 121.015 22.2438 121.579 21.5178 121.579C20.7914 121.579 20.2266 121.015 20.2266 120.288C20.2266 119.562 20.7914 118.997 21.5178 118.997C22.2438 118.997 22.8089 119.589 22.8089 120.288Z" fill="#303030"/>
<path d="M26.0373 123.516C26.0373 124.242 25.4726 124.807 24.7462 124.807C24.0202 124.807 23.4551 124.242 23.4551 123.516C23.4551 122.79 24.0202 122.225 24.7462 122.225C25.4726 122.225 26.0373 122.816 26.0373 123.516Z" fill="#303030"/>
<path d="M29.2649 120.288C29.2649 121.015 28.6731 121.579 27.9737 121.579C27.2474 121.579 26.6826 121.015 26.6826 120.288C26.6826 119.562 27.2474 118.997 27.9737 118.997C28.6997 118.997 29.2649 119.589 29.2649 120.288Z" fill="#303030"/>
<path d="M46.2106 113.967H23.2666C22.325 113.026 21.7873 112.488 20.8457 111.546V86.9082C21.7873 85.9666 22.325 85.4289 23.2666 84.4872H46.2106C47.1519 85.4289 47.69 85.9666 48.6313 86.9082V111.546C47.69 112.488 47.1519 113.026 46.2106 113.967Z" fill="white"/>
<path d="M44.2478 99.2274C44.2478 104.473 39.9979 108.722 34.7528 108.722C31.9283 108.722 29.4001 107.512 27.6784 105.548C26.8178 104.607 26.1724 103.477 25.7419 102.24C25.4191 101.299 25.2578 100.276 25.2578 99.2004C25.2578 93.9553 29.5077 89.7054 34.7528 89.7054C35.9363 89.7054 37.0658 89.9206 38.0881 90.3241C39.2986 90.7813 40.4014 91.4806 41.3427 92.3683C43.1179 94.0899 44.2478 96.5375 44.2478 99.2274Z" fill="#3D3D3D"/>
<path d="M37.0117 92.3949C37.0117 96.1336 33.9723 99.1734 30.2336 99.1734C28.2161 99.1734 26.4138 98.3124 25.1767 96.9136C24.558 96.2413 24.1008 95.4343 23.805 94.5466C23.5897 93.8743 23.4551 93.1483 23.4551 92.3949C23.4551 88.6561 26.4945 85.6168 30.2336 85.6168C31.0672 85.6168 31.8742 85.778 32.6272 86.0469C33.4882 86.3698 34.2952 86.8809 34.9406 87.4996C36.2047 88.7368 37.0117 90.485 37.0117 92.3949Z" fill="white"/>
<path d="M86.0736 113.967H63.13C62.1884 113.026 61.6502 112.488 60.709 111.546V86.9079C61.6502 85.9666 62.1884 85.4285 63.13 84.4872H86.0736C87.0152 85.4285 87.553 85.9666 88.4946 86.9079V111.546C87.553 112.488 87.0152 113.026 86.0736 113.967Z" fill="white"/>
<path d="M84.1091 99.2274C84.1091 104.473 79.8593 108.722 74.6141 108.722C71.7896 108.722 69.2614 107.512 67.5398 105.548C66.6791 104.607 66.0334 103.477 65.6033 102.24C65.2804 101.299 65.1191 100.276 65.1191 99.2004C65.1191 93.9553 69.369 89.7054 74.6141 89.7054C75.7976 89.7054 76.9271 89.9206 77.9494 90.3241C79.1599 90.7813 80.2624 91.4806 81.204 92.3683C83.0063 94.0899 84.1091 96.5375 84.1091 99.2274Z" fill="#3D3D3D"/>
<path d="M76.874 92.3949C76.874 96.1336 73.8346 99.1734 70.0955 99.1734C68.0784 99.1734 66.2761 98.3124 65.039 96.9136C64.4203 96.2413 63.9628 95.4343 63.6669 94.5466C63.452 93.8743 63.3174 93.1483 63.3174 92.3949C63.3174 88.6561 66.3568 85.6168 70.0955 85.6168C70.9295 85.6168 71.7365 85.778 72.4895 86.0469C73.3501 86.3698 74.1571 86.8809 74.8029 87.4996C76.094 88.7368 76.874 90.485 76.874 92.3949Z" fill="white"/>
<path d="M247.542 132.634L233.259 129.971C232.829 129.353 232.614 129.003 232.184 128.411L234.416 116.441C235.035 116.011 235.384 115.796 235.976 115.365L250.259 118.028C250.689 118.647 250.904 118.997 251.335 119.589L249.102 131.558C248.484 131.988 248.134 132.231 247.542 132.634Z" fill="#ADB5FF" stroke="#3D3D3D" stroke-width="1.07592" stroke-miterlimit="10" stroke-linejoin="round"/>
<path d="M243.804 160.339L229.521 157.676C229.091 157.058 228.876 156.708 228.445 156.116L230.678 144.146C231.296 143.716 231.646 143.501 232.238 143.07L246.521 145.733C246.951 146.352 247.166 146.702 247.597 147.293L245.364 159.263C244.745 159.693 244.423 159.936 243.804 160.339Z" stroke="#3D3D3D" stroke-width="1.07592" stroke-miterlimit="10" stroke-linejoin="round"/>
<path d="M240.064 188.071L225.781 185.408C225.351 184.79 225.136 184.44 224.705 183.848L226.938 171.878C227.556 171.448 227.906 171.233 228.498 170.802L242.78 173.465C243.211 174.084 243.426 174.434 243.856 175.026L241.624 186.995C241.005 187.398 240.682 187.641 240.064 188.071Z" fill="#ADB5FF" stroke="#3D3D3D" stroke-width="1.07592" stroke-miterlimit="10" stroke-linejoin="round"/>
<path d="M239.338 123.731L241.758 127.524L257.924 119.239" stroke="#3D3D3D" stroke-width="1.07592" stroke-miterlimit="10" stroke-linejoin="round"/>
<path d="M231.457 175.214L237.133 183.632" stroke="#3D3D3D" stroke-width="1.07592" stroke-miterlimit="10" stroke-linejoin="round"/>
<path d="M238.639 176.801L229.924 182.046" stroke="#3D3D3D" stroke-width="1.07592" stroke-miterlimit="10" stroke-linejoin="round"/>
<path d="M235.732 48.632C239.565 48.632 242.672 45.5251 242.672 41.6923C242.672 37.8597 239.565 34.7527 235.732 34.7527C231.9 34.7527 228.793 37.8597 228.793 41.6923C228.793 45.5251 231.9 48.632 235.732 48.632Z" fill="white"/>
<path d="M194.041 41.6117H138.04V44.4898H194.041V41.6117Z" fill="white"/>
<path d="M121.256 166.122C121.256 166.122 125.964 168.758 126.394 169.377L125.264 171.071L120.691 167.198L121.256 166.122Z" fill="#5E64FF"/>
<path d="M45.2156 70.2309C44.7311 72.1944 43.2251 73.7008 41.2616 74.1579C34.0796 75.9065 27.4091 80.2907 22.944 86.1815C22.0834 87.338 20.8191 88.0644 19.3935 88.2527C17.9679 88.4409 16.5423 88.091 15.4126 87.2034C13.6911 85.9123 12.9111 83.7069 13.4221 81.6088C13.6104 80.9094 13.9063 80.237 14.3636 79.6723C20.3618 71.7103 29.0228 66.035 38.706 63.6947C41.5841 62.9953 44.5163 64.7705 45.2156 67.6487C45.4305 68.4827 45.4305 69.3703 45.2156 70.2309Z" stroke="#58FFFF" stroke-width="0.806936" stroke-miterlimit="10" stroke-linejoin="round"/>
<path d="M42.6067 69.5586C42.3649 70.5002 41.6385 71.2802 40.6432 71.5221C32.8699 73.4049 25.6612 78.1659 20.8195 84.5409C19.9319 85.7244 18.2373 85.9663 17.0538 85.0517C15.8703 84.1641 15.6282 82.4698 16.5427 81.2863C22.1914 73.8354 30.2876 68.5097 39.3791 66.2769C40.8315 65.9274 42.2842 66.8151 42.6337 68.2674C42.7144 68.7249 42.7144 69.1551 42.6067 69.5586Z" stroke="#58FFFF" stroke-width="0.806936" stroke-miterlimit="10" stroke-linejoin="round"/>
<path d="M18.668 82.9273C23.8862 76.0146 31.552 70.9847 39.9981 68.9136" stroke="#58FFFF" stroke-width="0.806936" stroke-miterlimit="10" stroke-linejoin="round"/>
<path d="M42.4457 188.743H54.0119C54.9535 189.685 55.4912 190.223 56.4329 191.164V204.075H28.459V197.082L42.4457 188.743Z" fill="#ADB5FF"/>
<path d="M70.4184 188.743H81.9845C82.9261 189.685 83.4639 190.223 84.4055 191.164V201.654C83.4639 202.596 82.9261 203.134 81.9845 204.075H56.4316V197.082L70.4184 188.743Z" fill="#ADB5FF"/>
</svg>
