<svg width="35" height="35" viewBox="0 0 35 35" fill="none" xmlns="http://www.w3.org/2000/svg">
<rect width="35" height="35" rx="17.5" fill="#C377FF"/>
<path d="M11.8984 24.167C12.6016 24.167 12.9971 23.8154 13.2432 22.9717L13.9111 20.9941H18.4902L19.1582 22.998C19.3955 23.8242 19.791 24.167 20.5381 24.167C21.3115 24.167 21.8652 23.6484 21.8652 22.9189C21.8652 22.6553 21.8213 22.418 21.6982 22.0752L18.2178 12.6357C17.8398 11.5986 17.2246 11.1416 16.1875 11.1416C15.1855 11.1416 14.5615 11.6162 14.1924 12.6445L10.7295 22.0752C10.6152 22.4004 10.5537 22.6992 10.5537 22.9189C10.5537 23.6836 11.0723 24.167 11.8984 24.167ZM14.4912 18.9375L16.1348 13.7432H16.1963L17.875 18.9375H14.4912Z" fill="white"/>
<path d="M20.9531 11.207H22.582C22.8906 11.207 23.1211 11.0234 23.1211 10.707C23.1211 10.3906 22.8906 10.2109 22.582 10.2109H20.9531C20.6445 10.2109 20.4141 10.3906 20.4141 10.707C20.4141 11.0234 20.6445 11.207 20.9531 11.207ZM25.75 13.082C26.0977 13.082 26.332 12.8477 26.332 12.4922V7.9375C26.332 7.53125 26.082 7.27734 25.6641 7.27734C25.4219 7.27734 25.2344 7.3125 24.9609 7.5L23.8438 8.27344C23.6602 8.40234 23.5898 8.53516 23.5898 8.71484C23.5898 8.96484 23.7656 9.13672 24.0039 9.13672C24.125 9.13672 24.207 9.10938 24.3164 9.03125L25.1406 8.45703H25.1641V12.4922C25.1641 12.8477 25.4023 13.082 25.75 13.082Z" fill="white"/>
</svg>
