<svg width="35" height="35" viewBox="0 0 35 35" fill="none" xmlns="http://www.w3.org/2000/svg">
<rect width="35" height="35" rx="17.5" fill="#F6A648"/>
<path d="M7.74609 22.8582C10.1587 22.8582 11.655 21.4211 11.655 19.3447V13.9592C11.655 13.3989 11.3386 13.0759 10.8113 13.0759C10.2773 13.0759 9.96094 13.3989 9.96094 13.9592V19.1931C9.96094 20.4917 9.15674 21.375 7.74609 21.375C6.33545 21.375 5.53784 20.4917 5.53784 19.1931V13.9592C5.53784 13.3989 5.22144 13.0759 4.6875 13.0759C4.16016 13.0759 3.83716 13.3989 3.83716 13.9592V19.3447C3.83716 21.4211 5.34009 22.8582 7.74609 22.8582Z" fill="#222330"/>
<path d="M26.4561 22.812C27.0889 22.812 27.4514 22.5417 27.6887 21.8892L30.5496 14.302C30.6089 14.1438 30.6418 13.9922 30.6418 13.8406C30.6418 13.3923 30.2859 13.0759 29.7717 13.0759C29.3301 13.0759 29.0862 13.2605 28.9412 13.7087L26.5022 20.874H26.4626L24.0171 13.7219C23.8787 13.2737 23.6084 13.0759 23.1667 13.0759C22.6394 13.0759 22.2834 13.3923 22.2834 13.8604C22.2834 14.012 22.3098 14.1702 22.3757 14.335L25.2168 21.8826C25.4607 22.5417 25.8232 22.812 26.4561 22.812Z" fill="#222330"/>
<path d="M32.3535 12.9873C32.5088 12.9873 32.6084 12.8818 32.6084 12.7266C32.6084 12.7119 32.6055 12.6973 32.6025 12.6826L32.5381 12.1699L32.9688 12.498C33.0215 12.542 33.0801 12.5654 33.1475 12.5654C33.2793 12.5654 33.3994 12.4512 33.3994 12.3018C33.3994 12.1934 33.335 12.1055 33.2207 12.0615L32.7197 11.8447L33.2207 11.6279C33.335 11.584 33.3994 11.4961 33.3994 11.3877C33.3994 11.2383 33.2822 11.127 33.1475 11.127C33.0801 11.127 33.0215 11.1504 32.9688 11.1943L32.5322 11.5225L32.5996 10.9922C32.6025 10.9775 32.6055 10.9629 32.6055 10.9482C32.6055 10.793 32.5059 10.6875 32.3535 10.6875C32.1953 10.6875 32.0898 10.7988 32.0898 10.9512C32.0898 10.9658 32.0928 10.9775 32.0957 10.9922L32.1631 11.5225L31.7266 11.1914C31.6768 11.1504 31.6152 11.127 31.5479 11.127C31.416 11.127 31.2959 11.2412 31.2959 11.3877C31.2959 11.4961 31.3604 11.5811 31.4746 11.6279L31.9727 11.8447L31.4746 12.0586C31.3633 12.1055 31.2959 12.1934 31.2959 12.3018C31.2959 12.4512 31.416 12.5625 31.5479 12.5625C31.6123 12.5625 31.6738 12.542 31.7266 12.498L32.1602 12.1699L32.0928 12.6826C32.0898 12.6973 32.0898 12.7119 32.0898 12.7266C32.0869 12.8789 32.1924 12.9873 32.3535 12.9873Z" fill="#222330"/>
<path d="M20 14H14.4C14.2352 14 14.1411 14.1882 14.24 14.32L16.91 17.88C16.9633 17.9511 16.9633 18.0489 16.91 18.12L14.24 21.68C14.1411 21.8118 14.2352 22 14.4 22H20" stroke="#222330" stroke-width="1.5" stroke-linecap="round"/>
</svg>
